<svg width="64" height="64" viewBox="0 0 64 64" fill="none" xmlns="http://www.w3.org/2000/svg">
<path d="M36.7712 24.3474L40.3823 22.6433L39.0842 20.7256L42.7274 21.5375L43.3257 21.2544L42.5191 18.9574L45.1259 20.3997L46.6751 19.6679L46.221 17.1251L48.4913 18.8078L52.9838 16.6871L51.9795 14.9083L51.8139 14.6145L55.1793 15.6508L57.674 14.4702C57.471 14.3848 57.2733 14.2993 57.0757 14.2192C57.0276 14.1978 56.9849 14.1818 56.9368 14.1657C56.7391 14.0856 56.5468 14.0108 56.3545 13.936C56.3332 13.9254 56.3118 13.92 56.2851 13.9093C56.1088 13.8452 55.9325 13.7758 55.7616 13.717C55.7188 13.701 55.6815 13.685 55.6387 13.6743C55.4518 13.6102 55.2648 13.5461 55.0832 13.482C55.0511 13.4713 55.0191 13.4606 54.9817 13.4499C54.8161 13.3965 54.6558 13.3431 54.4902 13.295C54.4582 13.2843 54.4208 13.2737 54.3887 13.263C54.2071 13.2096 54.0255 13.1561 53.8492 13.1027C53.8118 13.092 53.7744 13.0813 53.737 13.0707C53.5714 13.0279 53.4112 12.9799 53.2509 12.9425C53.2295 12.9371 53.2082 12.9318 53.1868 12.9264C53.0105 12.8837 52.8342 12.841 52.6633 12.7982C52.6259 12.7875 52.5832 12.7822 52.5458 12.7715C52.3748 12.7341 52.2039 12.6967 52.033 12.6593H52.0276C51.8567 12.6273 51.6857 12.5952 51.5148 12.5632C51.4774 12.5578 51.44 12.5525 51.4026 12.5418C51.237 12.5151 51.0714 12.4884 50.9058 12.4617C50.8898 12.4617 50.8738 12.4563 50.8577 12.4563C50.7082 12.435 50.5586 12.4136 50.409 12.3976C50.3716 12.3922 50.3396 12.3869 50.3022 12.3869C50.1419 12.3709 49.987 12.3549 49.8321 12.3388C49.8054 12.3388 49.7787 12.3335 49.752 12.3335C49.6131 12.3228 49.4742 12.3121 49.3406 12.3014C49.3086 12.3014 49.2819 12.2961 49.2498 12.2961C49.1003 12.2854 48.9453 12.2801 48.8011 12.2747C48.7691 12.2747 48.737 12.2747 48.705 12.2747C48.5714 12.2694 48.4379 12.2694 48.3043 12.2694C48.2883 12.2694 48.2723 12.2694 48.2562 12.2694C48.2509 12.2694 48.2456 12.2694 48.2456 12.2694C48.0159 12.2694 47.7915 12.2747 47.5671 12.2854C47.5618 12.2854 47.5565 12.2854 47.5511 12.2854C47.3321 12.2961 47.1184 12.3068 46.9048 12.3281C46.8887 12.3281 46.8674 12.3335 46.8513 12.3335C46.6537 12.3495 46.456 12.3709 46.2584 12.3976C46.237 12.4029 46.2156 12.4029 46.1943 12.4083C46.002 12.435 45.815 12.4617 45.628 12.4937C45.6067 12.4991 45.5853 12.4991 45.5639 12.5044C45.377 12.5365 45.19 12.5739 45.003 12.6166C44.987 12.6219 44.971 12.6219 44.9603 12.6273C44.7627 12.67 44.5704 12.7181 44.3834 12.7715H44.378C44.1857 12.8249 43.9988 12.8784 43.8171 12.9371C43.8065 12.9425 43.7904 12.9478 43.7798 12.9478C43.6088 13.0012 43.4379 13.06 43.2669 13.1241C43.2509 13.1294 43.2295 13.1401 43.2135 13.1454C43.0533 13.2042 42.893 13.2683 42.7327 13.3324C42.7114 13.3378 42.6954 13.3484 42.674 13.3538C42.5137 13.4179 42.3588 13.4873 42.2039 13.5621C42.1879 13.5675 42.1719 13.5781 42.1558 13.5835C41.9956 13.6583 41.8407 13.7384 41.6857 13.8185C41.6804 13.8239 41.6697 13.8239 41.6644 13.8292C41.5041 13.9147 41.3439 14.0002 41.1889 14.091C41.1783 14.0963 41.1729 14.1016 41.1622 14.107C41.0127 14.1925 40.8684 14.2779 40.7295 14.3687C40.7135 14.3794 40.6975 14.3901 40.6868 14.3954C40.5533 14.4809 40.4144 14.5717 40.2862 14.6625C40.2701 14.6732 40.2541 14.6839 40.2381 14.6946C40.1045 14.7854 39.9763 14.8762 39.8535 14.9724C39.8375 14.9831 39.8214 14.9937 39.8107 15.0044C39.6825 15.1006 39.5543 15.2021 39.4261 15.3036C39.4154 15.3089 39.4048 15.3196 39.3994 15.3249C39.2659 15.4318 39.1377 15.544 39.0095 15.6508C39.0041 15.6561 38.9988 15.6561 38.9934 15.6615C38.8706 15.7683 38.7477 15.8805 38.6248 15.9927C38.6142 16.0034 38.6035 16.014 38.5928 16.0247C38.4806 16.1316 38.3684 16.2384 38.2616 16.3452C38.2456 16.3613 38.2349 16.3719 38.2189 16.388C38.112 16.4948 38.0105 16.6016 37.9037 16.7085C37.8877 16.7245 37.877 16.7352 37.8663 16.7512C37.7648 16.8634 37.658 16.9756 37.5618 17.0878C37.5511 17.0984 37.5404 17.1091 37.5298 17.1198C37.4229 17.2373 37.3214 17.3602 37.2199 17.4777C37.2146 17.4831 37.2146 17.4831 37.2092 17.4884C37.1078 17.6113 37.0063 17.7341 36.9048 17.8623C36.8941 17.873 36.8887 17.8837 36.8781 17.8944C36.7872 18.0119 36.6964 18.1241 36.611 18.2416C36.6003 18.2576 36.5896 18.2737 36.5789 18.2843C36.4934 18.3965 36.4133 18.5087 36.3332 18.6262C36.3225 18.6422 36.3118 18.6583 36.3011 18.6743C36.221 18.7918 36.1409 18.904 36.0607 19.0215C36.0501 19.0375 36.0394 19.0482 36.034 19.0642C35.9539 19.1818 35.8738 19.3046 35.799 19.4222C35.7937 19.4328 35.7883 19.4382 35.783 19.4489C35.7028 19.5771 35.6227 19.6999 35.5479 19.8228C35.5426 19.8335 35.5372 19.8442 35.5319 19.8548C35.4625 19.9724 35.393 20.0899 35.3236 20.2074C35.3129 20.2234 35.3075 20.2395 35.2969 20.2555C35.2328 20.3677 35.1687 20.4798 35.1099 20.592C35.0992 20.6081 35.0885 20.6294 35.0832 20.6454C35.0244 20.7576 34.9657 20.8645 34.9069 20.9766C34.8962 20.9927 34.8909 21.0087 34.8802 21.0247C34.8214 21.1369 34.7627 21.2491 34.7093 21.3559C34.7039 21.3666 34.6986 21.3719 34.6986 21.3826C36.2103 15.4692 36.1996 5.67217 21.8888 1.0835L22.9945 3.6102L26.2157 5.03648L25.8952 5.14866L23.9667 5.82708L25.9593 10.3784L28.7798 10.5974L26.7659 12.216L27.455 13.7865L30.3716 14.4115L28.2563 15.6134L28.5234 16.2224L31.8033 18.0012L29.565 18.5942L31.7445 23.5674C31.7392 23.5621 31.7338 23.5568 31.7285 23.5514C31.6697 23.4766 31.6056 23.4019 31.5415 23.3271C31.5308 23.3164 31.5202 23.3004 31.5095 23.2897C31.4454 23.2149 31.3813 23.1348 31.3118 23.06C31.3011 23.0493 31.2905 23.0333 31.2798 23.0226C31.2103 22.9424 31.1409 22.8677 31.0714 22.7875C31.0608 22.7769 31.0501 22.7608 31.0394 22.7501C30.9699 22.67 30.8952 22.5899 30.8204 22.5098C30.8097 22.4991 30.799 22.4884 30.7883 22.4777C30.7135 22.3922 30.6334 22.3121 30.5533 22.2266C30.5426 22.216 30.5319 22.2053 30.5266 22.1946C30.4464 22.1091 30.361 22.0236 30.2755 21.9328C30.2648 21.9222 30.2541 21.9115 30.2488 21.9061C30.1633 21.8153 30.0725 21.7298 29.9817 21.639C29.971 21.6283 29.9603 21.6177 29.9496 21.607C29.8642 21.5215 29.7734 21.436 29.6825 21.3506C29.6719 21.3399 29.6558 21.3292 29.6452 21.3132C29.5543 21.2277 29.4689 21.1476 29.3727 21.0621C29.3567 21.0461 29.3407 21.0354 29.3246 21.0194C29.2338 20.9392 29.143 20.8591 29.0522 20.779C29.0362 20.763 29.0148 20.7469 28.9988 20.7309C28.908 20.6508 28.8172 20.576 28.721 20.4959C28.6996 20.4798 28.6836 20.4638 28.6622 20.4478C28.5714 20.373 28.4753 20.2929 28.3791 20.2181C28.3578 20.2021 28.3364 20.186 28.315 20.17C28.2189 20.0952 28.1227 20.0204 28.0266 19.9457C28.0052 19.9296 27.9838 19.9136 27.9571 19.8922C27.861 19.8175 27.7595 19.7427 27.658 19.6732C27.6366 19.6572 27.6099 19.6412 27.5885 19.6251C27.487 19.5504 27.3855 19.4809 27.2787 19.4061C27.2573 19.3901 27.2306 19.3741 27.2093 19.3581C27.1024 19.2886 26.9956 19.2138 26.8887 19.1444C26.8674 19.1284 26.846 19.1177 26.8193 19.1016C26.7071 19.0322 26.5949 18.9628 26.4828 18.8933C26.4614 18.8826 26.44 18.8666 26.4187 18.8559C26.3011 18.7865 26.1836 18.717 26.0661 18.6476C26.0447 18.6369 26.0287 18.6262 26.0073 18.6155C25.8845 18.5461 25.7616 18.4766 25.6334 18.4125C25.6174 18.4019 25.6014 18.3965 25.5853 18.3858C25.4518 18.3164 25.3182 18.2469 25.1847 18.1828C25.1687 18.1775 25.1526 18.1668 25.142 18.1615C25.0084 18.0974 24.8695 18.0333 24.7306 17.9692C24.7146 17.9638 24.6986 17.9585 24.6879 17.9478C24.5543 17.889 24.4155 17.8303 24.2819 17.7715C24.2659 17.7662 24.2445 17.7555 24.2285 17.7501C24.0949 17.6967 23.9561 17.6433 23.8172 17.5899C23.7958 17.5845 23.7744 17.5739 23.7531 17.5685C23.6142 17.5204 23.4806 17.4724 23.3417 17.4243C23.3204 17.419 23.299 17.4083 23.2723 17.4029C23.1334 17.3602 22.9945 17.3121 22.8556 17.2747C22.8343 17.2694 22.8076 17.2587 22.7862 17.2534C22.6473 17.2106 22.5031 17.1732 22.3588 17.1412C22.3321 17.1358 22.3108 17.1305 22.2894 17.1251C22.1452 17.0878 22.0009 17.0557 21.8514 17.0237C21.83 17.0183 21.8033 17.013 21.7819 17.0076C21.6323 16.9756 21.4828 16.9489 21.3332 16.9222C21.3118 16.9168 21.2851 16.9168 21.2638 16.9115C21.1088 16.8848 20.9539 16.8634 20.799 16.842C20.7776 16.8367 20.7563 16.8367 20.7349 16.8313C20.5747 16.81 20.4144 16.794 20.2541 16.7833C20.2328 16.7833 20.2167 16.7779 20.1954 16.7779C20.0298 16.7619 19.8642 16.7566 19.6932 16.7459C19.6772 16.7459 19.6612 16.7459 19.6505 16.7459C19.4796 16.7405 19.3033 16.7352 19.127 16.7352C19.1217 16.7352 19.111 16.7352 19.1056 16.7352C19.1003 16.7352 19.095 16.7352 19.095 16.7352C18.9881 16.7352 18.8866 16.7352 18.7798 16.7405C18.7531 16.7405 18.7264 16.7405 18.705 16.7459C18.6249 16.7459 18.5447 16.7512 18.4593 16.7566C18.4219 16.7566 18.3898 16.7619 18.3524 16.7619C18.2776 16.7672 18.2029 16.7726 18.1281 16.7779C18.096 16.7779 18.0586 16.7833 18.0266 16.7833C17.9358 16.7886 17.845 16.7993 17.7541 16.81C17.7381 16.81 17.7167 16.8153 17.7007 16.8153C17.5885 16.826 17.4817 16.842 17.3695 16.8527C17.3428 16.8581 17.3214 16.8581 17.2947 16.8634C17.2093 16.8741 17.1185 16.8848 17.033 16.9008C17.0009 16.9061 16.9635 16.9115 16.9315 16.9168C16.8514 16.9275 16.7712 16.9435 16.6858 16.9595C16.6537 16.9649 16.6217 16.9702 16.5896 16.9756C16.4881 16.9916 16.392 17.013 16.2905 17.0343C16.2744 17.0397 16.2638 17.0397 16.2477 17.045C16.1302 17.0664 16.018 17.0931 15.9005 17.1198C15.8738 17.1251 15.8524 17.1305 15.8257 17.1358C15.7349 17.1572 15.6441 17.1786 15.5533 17.2053C15.5212 17.216 15.4838 17.2213 15.4465 17.232C15.361 17.2534 15.2755 17.2801 15.19 17.3014C15.158 17.3121 15.1259 17.3175 15.0885 17.3281C14.9817 17.3602 14.8749 17.3922 14.768 17.4243C14.7573 17.4296 14.7467 17.4296 14.7413 17.435C14.6185 17.4724 14.5009 17.5098 14.3781 17.5525C14.3514 17.5632 14.3247 17.5685 14.2979 17.5792C14.2018 17.6113 14.111 17.6433 14.0148 17.6807C13.9774 17.6914 13.94 17.7074 13.908 17.7181C13.8172 17.7501 13.7317 17.7822 13.6409 17.8196C13.6088 17.8303 13.5715 17.8463 13.5394 17.857C13.4272 17.8997 13.315 17.9478 13.1975 17.9959C13.1868 18.0012 13.1815 18.0012 13.1708 18.0066C13.0479 18.06 12.9197 18.1134 12.7969 18.1668C12.7702 18.1775 12.7381 18.1935 12.7114 18.2042C12.6153 18.2469 12.5191 18.2897 12.4229 18.3378C12.3856 18.3538 12.3482 18.3751 12.3054 18.3912C12.2146 18.4339 12.1238 18.4766 12.033 18.5247C11.9956 18.5407 11.9635 18.5621 11.9262 18.5781C11.8086 18.6369 11.6858 18.701 11.5682 18.7598C11.5629 18.7651 11.5576 18.7651 11.5469 18.7704C11.4187 18.8399 11.2905 18.9093 11.1623 18.9788C11.1302 18.9948 11.0982 19.0162 11.0608 19.0322C10.9646 19.0856 10.8685 19.139 10.7723 19.1978C10.7296 19.2192 10.6922 19.2459 10.6494 19.2672C10.5586 19.3207 10.4625 19.3794 10.3717 19.4328C10.3343 19.4542 10.2969 19.4809 10.2595 19.5023C10.1366 19.5771 10.0138 19.6572 9.8909 19.732C9.88556 19.7373 9.88022 19.7373 9.87488 19.7427C9.74667 19.8281 9.61312 19.9136 9.47958 19.9991C9.44218 20.0258 9.40479 20.0472 9.3674 20.0739C9.27124 20.138 9.17509 20.2021 9.08428 20.2662C9.04154 20.2982 8.99347 20.3303 8.95073 20.357C8.85992 20.4211 8.76377 20.4905 8.67295 20.5546C8.63022 20.5867 8.59283 20.6134 8.55009 20.6454C8.42189 20.7363 8.29368 20.8324 8.16548 20.9286C8.16013 20.9339 8.15479 20.9339 8.14945 20.9392C8.0159 21.0407 7.88236 21.1422 7.74881 21.2491C7.70607 21.2811 7.66868 21.3132 7.62595 21.3452C7.52979 21.42 7.43364 21.4948 7.33749 21.5749C7.28941 21.6123 7.24133 21.6497 7.1986 21.6871C7.10244 21.7672 7.00629 21.842 6.91014 21.9222C6.8674 21.9595 6.82466 21.9916 6.78193 22.029C6.64304 22.1412 6.50949 22.2587 6.37061 22.3762L9.10565 22.7448L12.0009 20.7416L11.9315 21.0728L11.5095 23.0707L16.4347 23.7384L18.0907 21.4467L18.4272 24.0108L20.1259 24.2405L22.1772 22.0771L22.1024 24.5076L22.7595 24.5984L25.986 22.7288L25.3289 24.951L30.4999 25.6508C27.6366 25.8324 22.8236 26.6604 19.2125 29.9617C19.1911 29.9777 19.1751 29.9937 19.1537 30.0151C16.4454 32.5204 14.4368 36.4253 14.4796 42.5204C14.4849 43.6315 14.565 44.8121 14.7146 46.0728L16.5522 44.0108L16.5041 40.4905L16.7392 40.7362L18.1601 42.2053L21.4667 38.498L20.4892 35.8591L22.8022 37.0129L23.9454 35.7309L23.299 32.8196L25.2755 34.2405L25.7189 33.7437L25.9699 30.0204L27.4443 31.81L31.6644 27.0771C31.6804 27.3548 31.7392 27.6433 31.7979 27.9157C31.8513 28.1454 31.9101 28.3645 31.9475 28.5568L31.9528 28.5835C32.1505 29.545 32.2734 30.5226 32.3695 31.5001C32.3802 31.6177 32.3909 31.7298 32.4016 31.842C32.4122 31.9489 32.4229 32.061 32.4283 32.1679C32.5137 33.1882 32.5565 34.2138 32.5618 35.2448C32.5618 35.4478 32.5618 35.6508 32.5618 35.8591C32.5511 37.1305 32.4817 38.4072 32.3695 39.6785C32.3481 39.9189 32.3214 40.1647 32.3001 40.405C32.1879 41.4894 32.0383 42.5738 31.862 43.6529C31.8193 43.9147 31.7766 44.1711 31.7285 44.4275C31.5362 45.5065 31.3172 46.5856 31.0768 47.654C31.0127 47.9317 30.9486 48.2095 30.8845 48.4873C30.6761 49.358 30.4571 50.2181 30.2221 51.0728C30.174 51.2437 30.1259 51.42 30.0778 51.5909C30.0031 51.8634 29.9229 52.1411 29.8428 52.4136C29.6612 53.0386 29.4796 53.6582 29.2872 54.2779C29.1323 54.7426 28.9828 55.2074 28.8332 55.6668C28.7477 55.9339 28.6569 56.2063 28.5714 56.4734C28.4913 56.7138 28.4112 56.9488 28.3257 57.1892C27.9892 58.1454 27.5939 59.0642 27.1879 59.9937C27.1024 60.1967 27.2253 60.2394 27.4069 60.2448C27.658 60.2554 27.9037 60.2234 28.1548 60.2234C28.4913 60.2234 28.8278 60.2234 29.159 60.2234H31.205C32.3214 60.2234 33.4379 60.2234 34.5543 60.2234C35.1152 60.2234 35.6708 60.2234 36.2317 60.2234C36.2744 60.2234 36.3225 60.2287 36.3759 60.2341C36.424 60.2394 36.4721 60.2394 36.5201 60.2394H36.5255C36.5255 60.2394 36.5255 60.2394 36.5308 60.2394C36.5575 60.2394 36.5896 60.2394 36.6163 60.2341C36.6216 60.2341 36.627 60.2341 36.6323 60.2287C36.659 60.2234 36.6857 60.2181 36.7125 60.2074C36.7605 60.186 36.7979 60.154 36.8246 60.1005C36.8994 59.9456 36.8834 59.748 36.9101 59.577C37.0971 58.3644 37.1825 57.1411 37.268 55.9178C37.268 55.8911 37.2734 55.8591 37.2734 55.8324C37.2734 55.8057 37.2787 55.7843 37.2787 55.7576C37.2894 55.5866 37.3001 55.4157 37.3107 55.2448C37.3107 55.2127 37.3161 55.1753 37.3161 55.1433C37.3268 54.9403 37.3375 54.7373 37.3481 54.529C37.3535 54.4275 37.3588 54.3206 37.3642 54.2191C37.3642 54.1924 37.3695 54.1604 37.3695 54.1337C37.3695 54.123 37.3695 54.1123 37.3695 54.1016C37.3695 54.0909 37.3695 54.0802 37.3695 54.0696C37.3748 53.9627 37.3748 53.8612 37.3802 53.7544C37.3855 53.5621 37.3962 53.3698 37.4016 53.1775C37.4016 53.1294 37.4069 53.0866 37.4069 53.0386C37.4069 53.0332 37.4069 53.0279 37.4069 53.0279C37.4069 53.0065 37.4069 52.9905 37.4069 52.9691C37.4069 52.9584 37.4069 52.9424 37.4069 52.9317C37.4069 52.9264 37.4069 52.9264 37.4069 52.9211C37.4069 52.857 37.4069 52.7875 37.4122 52.7234C37.4176 52.4296 37.4229 52.1358 37.4283 51.842C37.4283 51.7352 37.4336 51.6337 37.4336 51.5268C37.4336 51.5001 37.4336 51.4734 37.4336 51.4467C37.4336 51.2651 37.4389 51.0834 37.4389 50.9072C37.4389 50.7149 37.4389 50.5172 37.4389 50.3249C37.4389 50.2928 37.4389 50.2555 37.4389 50.2234C37.4389 50.202 37.4389 50.186 37.4389 50.1646C37.4389 50.154 37.4389 50.1379 37.4389 50.1273C37.4389 50.0471 37.4389 49.967 37.4389 49.8869C37.4389 49.8815 37.4389 49.8762 37.4389 49.8708C37.4389 49.8441 37.4389 49.8174 37.4389 49.7907C37.4389 49.78 37.4389 49.7747 37.4389 49.764C37.4389 49.7213 37.4389 49.6785 37.4389 49.6358C37.4389 49.6251 37.4389 49.6144 37.4389 49.5984C37.4389 49.5824 37.4389 49.561 37.4389 49.545C37.4389 49.5236 37.4389 49.5076 37.4389 49.4862C37.4389 49.4702 37.4389 49.4542 37.4389 49.4382C37.4389 49.4114 37.4389 49.3794 37.4389 49.3527C37.4389 49.3473 37.4389 49.3367 37.4389 49.3313C37.4389 49.2939 37.4389 49.2565 37.4389 49.2191C37.4389 49.2138 37.4389 49.2031 37.4389 49.1978C37.4389 49.1657 37.4389 49.1337 37.4389 49.1016C37.4389 49.0963 37.4389 49.0856 37.4389 49.0802C37.4389 49.0429 37.4389 49.0055 37.4389 48.9627C37.4389 48.9627 37.4389 48.9627 37.4389 48.9574C37.4389 48.9307 37.4389 48.904 37.4389 48.8773C37.4389 48.8773 37.4389 48.8773 37.4389 48.8719C37.4389 48.8666 37.4389 48.8612 37.4389 48.8559C37.4389 48.8399 37.4389 48.8238 37.4389 48.8132C37.4389 48.7971 37.4389 48.7758 37.4389 48.7597C37.4336 48.3164 37.4283 47.873 37.4176 47.4296C37.4176 47.3014 37.4122 47.1785 37.4122 47.0503C37.4122 47.0076 37.4122 46.9649 37.4069 46.9168C37.4069 46.9008 37.4069 46.8847 37.4069 46.8687C37.3962 46.3345 37.3802 45.8003 37.3588 45.2661C37.3535 45.0738 37.3428 44.8815 37.3375 44.6892C37.3268 44.3847 37.3161 44.0803 37.3001 43.7758C37.2947 43.6796 37.2894 43.5888 37.2894 43.4926C37.284 43.4339 37.284 43.3751 37.2787 43.3164C37.2787 43.2736 37.2734 43.2309 37.2734 43.1882C37.2627 42.9424 37.2466 42.6967 37.2306 42.4563C37.2146 42.1465 37.1986 41.8367 37.1772 41.5268C37.1612 41.2758 37.1451 41.03 37.1291 40.779C37.1078 40.4264 37.081 40.0738 37.0543 39.7213C37.0543 39.7159 37.0543 39.7106 37.0543 39.7053C37.0437 39.5236 37.0276 39.342 37.0116 39.1604C36.9956 38.9894 36.9795 38.8185 36.9689 38.6476C36.9422 38.3377 36.9154 38.0226 36.8887 37.7127C36.862 37.435 36.8353 37.1625 36.8086 36.8847C36.7766 36.5642 36.7445 36.2437 36.7125 35.9232C36.7018 35.8377 36.6964 35.7523 36.6857 35.6668C36.6697 35.4905 36.6484 35.3142 36.627 35.138C36.6056 34.9243 36.5789 34.7106 36.5522 34.4916C36.5148 34.1711 36.4774 33.8506 36.4347 33.53C36.4293 33.4659 36.4187 33.4072 36.4133 33.3431C36.3706 33.0226 36.3332 32.6967 36.2851 32.3762C36.2851 32.3602 36.2798 32.3495 36.2798 32.3335C36.2531 32.1412 36.2263 31.9435 36.1943 31.7512C36.1889 31.7085 36.1836 31.6604 36.1729 31.6177C36.1622 31.5375 36.1462 31.4627 36.1355 31.3826C36.1248 31.3239 36.1195 31.2651 36.1088 31.2063C36.0821 31.0568 36.0607 30.9072 36.034 30.7576C36.0234 30.7095 36.018 30.6561 36.0073 30.608C35.9913 30.5065 35.9699 30.405 35.9539 30.3036C35.9325 30.1967 35.9165 30.0845 35.8951 29.9777C35.8791 29.8869 35.8578 29.8014 35.8417 29.7106C35.8204 29.5931 35.7937 29.4756 35.7669 29.358C35.7509 29.2726 35.7296 29.1871 35.7082 29.0963C35.6922 29.0162 35.6761 28.936 35.6548 28.8612C35.6548 28.8612 35.6548 28.8612 35.6548 28.8559C35.6494 28.8452 35.6494 28.8292 35.6441 28.8185C35.6441 28.8132 35.6441 28.8132 35.6441 28.8078C35.6441 28.7971 35.6387 28.7865 35.6387 28.7758C35.6387 28.7704 35.6387 28.7704 35.6387 28.7651C35.6387 28.7544 35.6334 28.7437 35.6334 28.733C35.6334 28.7277 35.6334 28.7224 35.6281 28.7224C35.6281 28.7117 35.6227 28.701 35.6227 28.6903C35.6227 28.685 35.6227 28.685 35.6174 28.6796C35.612 28.6636 35.612 28.6529 35.6067 28.6369C35.5746 28.498 35.5372 28.3538 35.4998 28.2149C35.4945 28.1989 35.4945 28.1828 35.4892 28.1721C35.4678 28.0867 35.4411 28.0012 35.4144 27.9211C35.4144 27.9157 35.409 27.9104 35.409 27.9051C35.377 27.8036 35.3449 27.6967 35.3075 27.5952C35.2862 27.5418 35.2701 27.4884 35.2488 27.435C35.2434 27.4243 35.2381 27.4083 35.2328 27.3976C35.2167 27.3602 35.2007 27.3174 35.1847 27.2801C35.174 27.2533 35.1633 27.2266 35.1526 27.1999C35.1366 27.1625 35.1206 27.1305 35.1046 27.0931C35.0992 27.0771 35.0885 27.061 35.0832 27.045L39.9603 29.4595L40.6601 27.248L42.284 30.608L42.877 30.9018L44.1751 28.8452L44.6612 31.7886L46.1996 32.5471L47.9144 30.6134L48.0052 33.4392L52.4603 35.6401L53.2295 33.7437L53.3577 33.4286L54.6344 36.7085L57.1077 37.9318C53.0319 22.8677 42.6473 22.9424 36.7712 24.3474Z" fill="#F2AA77"/>
<path d="M36.7712 24.3474L40.3823 22.6433L39.0842 20.7256L42.7274 21.5375L43.3257 21.2544L42.5191 18.9574L45.1259 20.3997L46.6751 19.6679L46.221 17.1251L48.4913 18.8078L52.9838 16.6871L51.9795 14.9083L51.8139 14.6145L55.1793 15.6508L57.674 14.4702C57.471 14.3848 57.2733 14.2993 57.0757 14.2192C57.0276 14.1978 56.9849 14.1818 56.9368 14.1657C56.7391 14.0856 56.5468 14.0108 56.3545 13.936C56.3332 13.9254 56.3118 13.92 56.2851 13.9093C56.1088 13.8452 55.9325 13.7758 55.7616 13.717C55.7188 13.701 55.6815 13.685 55.6387 13.6743C55.4518 13.6102 55.2648 13.5461 55.0832 13.482C55.0511 13.4713 55.0191 13.4606 54.9817 13.4499C54.8161 13.3965 54.6558 13.3431 54.4902 13.295C54.4582 13.2843 54.4208 13.2737 54.3887 13.263C54.2071 13.2096 54.0255 13.1561 53.8492 13.1027C53.8118 13.092 53.7744 13.0813 53.737 13.0707C53.5714 13.0279 53.4112 12.9799 53.2509 12.9425C53.2295 12.9371 53.2082 12.9318 53.1868 12.9264C53.0105 12.8837 52.8342 12.841 52.6633 12.7982C52.6259 12.7875 52.5832 12.7822 52.5458 12.7715C52.3748 12.7341 52.2039 12.6967 52.033 12.6593H52.0276C51.8567 12.6273 51.6857 12.5952 51.5148 12.5632C51.4774 12.5578 51.44 12.5525 51.4026 12.5418C51.237 12.5151 51.0714 12.4884 50.9058 12.4617C50.8898 12.4617 50.8738 12.4563 50.8577 12.4563C50.7082 12.435 50.5586 12.4136 50.409 12.3976C50.3716 12.3922 50.3396 12.3869 50.3022 12.3869C50.1419 12.3709 49.987 12.3549 49.8321 12.3388C49.8054 12.3388 49.7787 12.3335 49.752 12.3335C49.6131 12.3228 49.4742 12.3121 49.3406 12.3014C49.3086 12.3014 49.2819 12.2961 49.2498 12.2961C49.1003 12.2854 48.9453 12.2801 48.8011 12.2747C48.7691 12.2747 48.737 12.2747 48.705 12.2747C48.5714 12.2694 48.4379 12.2694 48.3043 12.2694C48.2883 12.2694 48.2723 12.2694 48.2562 12.2694C48.2509 12.2694 48.2456 12.2694 48.2456 12.2694C48.0159 12.2694 47.7915 12.2747 47.5671 12.2854C47.5618 12.2854 47.5565 12.2854 47.5511 12.2854C47.3321 12.2961 47.1184 12.3068 46.9048 12.3281C46.8887 12.3281 46.8674 12.3335 46.8513 12.3335C46.6537 12.3495 46.456 12.3709 46.2584 12.3976C46.237 12.4029 46.2156 12.4029 46.1943 12.4083C46.002 12.435 45.815 12.4617 45.628 12.4937C45.6067 12.4991 45.5853 12.4991 45.5639 12.5044C45.377 12.5365 45.19 12.5739 45.003 12.6166C44.987 12.6219 44.971 12.6219 44.9603 12.6273C44.7627 12.67 44.5704 12.7181 44.3834 12.7715H44.378C44.1857 12.8249 43.9988 12.8784 43.8171 12.9371C43.8065 12.9425 43.7904 12.9478 43.7798 12.9478C43.6088 13.0012 43.4379 13.06 43.2669 13.1241C43.2509 13.1294 43.2295 13.1401 43.2135 13.1454C43.0533 13.2042 42.893 13.2683 42.7327 13.3324C42.7114 13.3378 42.6954 13.3484 42.674 13.3538C42.5137 13.4179 42.3588 13.4873 42.2039 13.5621C42.1879 13.5675 42.1719 13.5781 42.1558 13.5835C41.9956 13.6583 41.8407 13.7384 41.6857 13.8185C41.6804 13.8239 41.6697 13.8239 41.6644 13.8292C41.5041 13.9147 41.3439 14.0001 41.1889 14.091C41.1783 14.0963 41.1729 14.1016 41.1622 14.107C41.0127 14.1925 40.8684 14.2779 40.7295 14.3687C40.7135 14.3794 40.6975 14.3901 40.6868 14.3954C40.5533 14.4809 40.4144 14.5717 40.2862 14.6625C40.2701 14.6732 40.2541 14.6839 40.2381 14.6946C40.1045 14.7854 39.9763 14.8762 39.8535 14.9724C39.8375 14.9831 39.8214 14.9937 39.8107 15.0044C39.6825 15.1006 39.5543 15.2021 39.4261 15.3036C39.4154 15.3089 39.4048 15.3196 39.3994 15.3249C39.2659 15.4318 39.1377 15.544 39.0095 15.6508C39.0041 15.6561 38.9988 15.6561 38.9934 15.6615C38.8706 15.7683 38.7477 15.8805 38.6248 15.9927C38.6142 16.0034 38.6035 16.014 38.5928 16.0247C38.4806 16.1316 38.3684 16.2384 38.2616 16.3452C38.2456 16.3613 38.2349 16.3719 38.2189 16.388C38.112 16.4948 38.0105 16.6016 37.9037 16.7085C37.8877 16.7245 37.877 16.7352 37.8663 16.7512C37.7648 16.8634 37.658 16.9756 37.5618 17.0878C37.5511 17.0984 37.5404 17.1091 37.5298 17.1198C37.4229 17.2373 37.3214 17.3602 37.2199 17.4777C37.2146 17.4831 37.2146 17.4831 37.2092 17.4884C37.1078 17.6113 37.0063 17.7341 36.9048 17.8623C36.8941 17.873 36.8887 17.8837 36.8781 17.8944C36.7872 18.0119 36.6964 18.1241 36.611 18.2416C36.6003 18.2576 36.5896 18.2736 36.5789 18.2843C36.4934 18.3965 36.4133 18.5087 36.3332 18.6262C36.3225 18.6422 36.3118 18.6583 36.3011 18.6743C36.221 18.7918 36.1409 18.904 36.0607 19.0215C36.0501 19.0375 36.0394 19.0482 36.034 19.0642C35.9539 19.1818 35.8738 19.3046 35.799 19.4222C35.7937 19.4328 35.7883 19.4382 35.783 19.4489C35.7028 19.5771 35.6227 19.6999 35.5479 19.8228C35.5426 19.8335 35.5372 19.8442 35.5319 19.8548C35.4625 19.9724 35.393 20.0899 35.3236 20.2074C35.3129 20.2234 35.3075 20.2395 35.2969 20.2555C35.2328 20.3677 35.1687 20.4798 35.1099 20.592C35.0992 20.608 35.0885 20.6294 35.0832 20.6454C35.0244 20.7576 34.9657 20.8645 34.9069 20.9766C34.8962 20.9927 34.8909 21.0087 34.8802 21.0247C34.8214 21.1369 34.7627 21.2491 34.7093 21.3559C34.7039 21.3666 34.6986 21.3719 34.6986 21.3826C36.2103 15.4692 36.1996 5.67217 21.8888 1.0835L22.9945 3.6102L26.2157 5.03648L25.8952 5.14866L23.9667 5.82708L25.9593 10.3784L28.7798 10.5974L26.7659 12.216L27.455 13.7865L30.3716 14.4115L28.2563 15.6134L28.5234 16.2224L31.8033 18.0012L29.565 18.5942L31.7445 23.5674C31.7392 23.5621 31.7338 23.5568 31.7285 23.5514C31.6697 23.4766 31.6056 23.4018 31.5415 23.3271C31.5308 23.3164 31.5202 23.3004 31.5095 23.2897C31.4454 23.2149 31.3813 23.1348 31.3118 23.06C31.3011 23.0493 31.2905 23.0333 31.2798 23.0226C31.2103 22.9424 31.1409 22.8677 31.0714 22.7875C31.0608 22.7768 31.0501 22.7608 31.0394 22.7501C30.9699 22.67 30.8952 22.5899 30.8204 22.5098C30.8097 22.4991 30.799 22.4884 30.7883 22.4777C30.7135 22.3922 30.6334 22.3121 30.5533 22.2266C30.5426 22.216 30.5319 22.2053 30.5266 22.1946C30.4464 22.1091 30.361 22.0236 30.2755 21.9328C30.2648 21.9221 30.2541 21.9115 30.2488 21.9061C30.1633 21.8153 30.0725 21.7298 29.9817 21.639C29.971 21.6283 29.9603 21.6177 29.9496 21.607C29.8642 21.5215 29.7734 21.436 29.6825 21.3506C29.6719 21.3399 29.6558 21.3292 29.6452 21.3132C29.5543 21.2277 29.4689 21.1476 29.3727 21.0621C29.3567 21.0461 29.3407 21.0354 29.3246 21.0194C29.2338 20.9392 29.143 20.8591 29.0522 20.779C29.0362 20.763 29.0148 20.7469 28.9988 20.7309C28.908 20.6508 28.8172 20.576 28.721 20.4959C28.6996 20.4798 28.6836 20.4638 28.6622 20.4478C28.5714 20.373 28.4753 20.2929 28.3791 20.2181C28.3578 20.2021 28.3364 20.186 28.315 20.17C28.2189 20.0952 28.1227 20.0204 28.0266 19.9457C28.0052 19.9296 27.9838 19.9136 27.9571 19.8922C27.861 19.8175 27.7595 19.7427 27.658 19.6732C27.6366 19.6572 27.6099 19.6412 27.5885 19.6251C27.487 19.5504 27.3855 19.4809 27.2787 19.4061C27.2573 19.3901 27.2306 19.3741 27.2093 19.3581C27.1024 19.2886 26.9956 19.2138 26.8887 19.1444C26.8674 19.1283 26.846 19.1177 26.8193 19.1016C26.7071 19.0322 26.5949 18.9628 26.4828 18.8933C26.4614 18.8826 26.44 18.8666 26.4187 18.8559C26.3011 18.7865 26.1836 18.717 26.0661 18.6476C26.0447 18.6369 26.0287 18.6262 26.0073 18.6155C25.8845 18.5461 25.7616 18.4766 25.6334 18.4125C25.6174 18.4019 25.6014 18.3965 25.5853 18.3858C25.4518 18.3164 25.3182 18.2469 25.1847 18.1828C25.1687 18.1775 25.1526 18.1668 25.142 18.1615C25.0084 18.0974 24.8695 18.0333 24.7306 17.9692C24.7146 17.9638 24.6986 17.9585 24.6879 17.9478C24.5543 17.889 24.4155 17.8303 24.2819 17.7715C24.2659 17.7662 24.2445 17.7555 24.2285 17.7501C24.0949 17.6967 23.9561 17.6433 23.8172 17.5899C23.7958 17.5845 23.7744 17.5739 23.7531 17.5685C23.6142 17.5204 23.4806 17.4724 23.3417 17.4243C23.3204 17.4189 23.299 17.4083 23.2723 17.4029C23.1334 17.3602 22.9945 17.3121 22.8556 17.2747C22.8343 17.2694 22.8076 17.2587 22.7862 17.2534C22.6473 17.2106 22.5031 17.1732 22.3588 17.1412C22.3321 17.1358 22.3108 17.1305 22.2894 17.1251C22.1452 17.0878 22.0009 17.0557 21.8514 17.0237C21.83 17.0183 21.8033 17.013 21.7819 17.0076C21.6323 16.9756 21.4828 16.9489 21.3332 16.9222C21.3118 16.9168 21.2851 16.9168 21.2638 16.9115C21.1088 16.8848 20.9539 16.8634 20.799 16.842C20.7776 16.8367 20.7563 16.8367 20.7349 16.8313C20.5747 16.81 20.4144 16.7939 20.2541 16.7833C20.2328 16.7833 20.2167 16.7779 20.1954 16.7779C20.0298 16.7619 19.8642 16.7566 19.6932 16.7459C19.6772 16.7459 19.6612 16.7459 19.6505 16.7459C19.4796 16.7405 19.3033 16.7352 19.127 16.7352C19.1217 16.7352 19.111 16.7352 19.1056 16.7352C19.1003 16.7352 19.095 16.7352 19.095 16.7352C18.9881 16.7352 18.8866 16.7352 18.7798 16.7405C18.7531 16.7405 18.7264 16.7405 18.705 16.7459C18.6249 16.7459 18.5447 16.7512 18.4593 16.7566C18.4219 16.7566 18.3898 16.7619 18.3524 16.7619C18.2776 16.7672 18.2029 16.7726 18.1281 16.7779C18.096 16.7779 18.0586 16.7833 18.0266 16.7833C17.9358 16.7886 17.845 16.7993 17.7541 16.81C17.7381 16.81 17.7167 16.8153 17.7007 16.8153C17.5885 16.826 17.4817 16.842 17.3695 16.8527C17.3428 16.8581 17.3214 16.8581 17.2947 16.8634C17.2093 16.8741 17.1185 16.8848 17.033 16.9008C17.0009 16.9061 16.9635 16.9115 16.9315 16.9168C16.8514 16.9275 16.7712 16.9435 16.6858 16.9595C16.6537 16.9649 16.6217 16.9702 16.5896 16.9756C16.4881 16.9916 16.392 17.013 16.2905 17.0343C16.2744 17.0397 16.2638 17.0397 16.2477 17.045C16.1302 17.0664 16.018 17.0931 15.9005 17.1198C15.8738 17.1251 15.8524 17.1305 15.8257 17.1358C15.7349 17.1572 15.6441 17.1786 15.5533 17.2053C15.5212 17.216 15.4838 17.2213 15.4465 17.232C15.361 17.2534 15.2755 17.2801 15.19 17.3014C15.158 17.3121 15.1259 17.3175 15.0885 17.3281C14.9817 17.3602 14.8749 17.3922 14.768 17.4243C14.7573 17.4296 14.7467 17.4296 14.7413 17.435C14.6185 17.4724 14.5009 17.5098 14.3781 17.5525C14.3514 17.5632 14.3247 17.5685 14.2979 17.5792C14.2018 17.6113 14.111 17.6433 14.0148 17.6807C13.9774 17.6914 13.94 17.7074 13.908 17.7181C13.8172 17.7501 13.7317 17.7822 13.6409 17.8196C13.6088 17.8303 13.5715 17.8463 13.5394 17.857C13.4272 17.8997 13.315 17.9478 13.1975 17.9959C13.1868 18.0012 13.1815 18.0012 13.1708 18.0066C13.0479 18.06 12.9197 18.1134 12.7969 18.1668C12.7702 18.1775 12.7381 18.1935 12.7114 18.2042C12.6153 18.2469 12.5191 18.2897 12.4229 18.3378C12.3856 18.3538 12.3482 18.3751 12.3054 18.3912C12.2146 18.4339 12.1238 18.4766 12.033 18.5247C11.9956 18.5407 11.9635 18.5621 11.9262 18.5781C11.8086 18.6369 11.6858 18.701 11.5682 18.7598C11.5629 18.7651 11.5576 18.7651 11.5469 18.7704C11.4187 18.8399 11.2905 18.9093 11.1623 18.9788C11.1302 18.9948 11.0982 19.0162 11.0608 19.0322C10.9646 19.0856 10.8685 19.139 10.7723 19.1978C10.7296 19.2192 10.6922 19.2459 10.6494 19.2672C10.5586 19.3207 10.4625 19.3794 10.3717 19.4328C10.3343 19.4542 10.2969 19.4809 10.2595 19.5023C10.1366 19.5771 10.0138 19.6572 9.8909 19.732C9.88556 19.7373 9.88022 19.7373 9.87488 19.7427C9.74667 19.8281 9.61312 19.9136 9.47958 19.9991C9.44218 20.0258 9.40479 20.0472 9.3674 20.0739C9.27124 20.138 9.17509 20.2021 9.08428 20.2662C9.04154 20.2982 8.99347 20.3303 8.95073 20.357C8.85992 20.4211 8.76377 20.4905 8.67295 20.5546C8.63022 20.5867 8.59283 20.6134 8.55009 20.6454C8.42189 20.7363 8.29368 20.8324 8.16548 20.9286C8.16013 20.9339 8.15479 20.9339 8.14945 20.9392C8.0159 21.0407 7.88236 21.1422 7.74881 21.2491C7.70607 21.2811 7.66868 21.3132 7.62595 21.3452C7.52979 21.42 7.43364 21.4948 7.33749 21.5749C7.28941 21.6123 7.24133 21.6497 7.1986 21.6871C7.10244 21.7672 7.00629 21.842 6.91014 21.9222C6.8674 21.9595 6.82466 21.9916 6.78193 22.029C6.64304 22.1412 6.50949 22.2587 6.37061 22.3762L9.10565 22.7448L12.0009 20.7416L11.9315 21.0728L11.5095 23.0707L16.4347 23.7384L18.0907 21.4467L18.4272 24.0108L20.1259 24.2405L22.1772 22.0771L22.1024 24.5076L22.7595 24.5984L25.986 22.7288L25.3289 24.951L30.4999 25.6508C27.6366 25.8324 22.8236 26.6604 19.2125 29.9617C19.1911 29.9777 19.1751 29.9937 19.1537 30.0151C16.4454 32.5204 14.4368 36.4253 14.4796 42.5204C14.4849 43.6315 14.565 44.8121 14.7146 46.0728L16.5522 44.0108L16.5041 40.4905L16.7392 40.7362L18.1601 42.2052L21.4667 38.498L20.4892 35.8591L22.8022 37.0129L23.9454 35.7309L23.299 32.8196L25.2755 34.2405L25.7189 33.7437L25.9699 30.0204L27.4443 31.81L31.6644 27.0771C31.6377 26.6177 31.7178 26.1796 32.0543 25.8805C32.0704 25.8698 32.081 25.8538 32.0971 25.8431C32.2627 25.7095 32.4603 25.6348 32.6687 25.608C32.7274 25.6027 32.7862 25.592 32.8449 25.592C32.9037 25.5867 32.9571 25.5867 33.0159 25.5867C33.0212 25.5867 33.0319 25.5867 33.0372 25.5867C33.0479 25.5867 33.0533 25.5867 33.064 25.5867C33.064 25.5867 33.064 25.5867 33.0693 25.5867C33.1067 25.5867 33.1441 25.592 33.1815 25.592C33.2242 25.592 33.2616 25.5974 33.3043 25.6027C33.3417 25.608 33.3738 25.6134 33.4112 25.6187C33.4486 25.6241 33.486 25.6294 33.5234 25.6401C33.5554 25.6454 33.5928 25.6561 33.6249 25.6668C33.6622 25.6775 33.6943 25.6882 33.7263 25.6989C33.7584 25.7095 33.7905 25.7202 33.8225 25.7362C33.8546 25.7469 33.8866 25.763 33.9187 25.7736C33.9507 25.7897 33.9774 25.8004 34.0095 25.8164C34.0415 25.8324 34.0682 25.8484 34.0949 25.8645C34.1216 25.8805 34.1537 25.8965 34.1804 25.9179C34.2071 25.9339 34.2338 25.9553 34.2605 25.9766C34.2872 25.998 34.314 26.014 34.3407 26.0354C34.3674 26.0568 34.3887 26.0781 34.4154 26.0995C34.4422 26.1209 34.4635 26.1422 34.4902 26.1689C34.5116 26.1903 34.5383 26.217 34.5597 26.2384C34.581 26.2651 34.6078 26.2865 34.6291 26.3132C34.6505 26.3399 34.6719 26.3612 34.6932 26.388C34.7146 26.4147 34.736 26.4414 34.7573 26.4681C34.7787 26.4948 34.7947 26.5215 34.8161 26.5482C34.8375 26.5749 34.8588 26.607 34.8748 26.6337C34.8909 26.6604 34.9069 26.6871 34.9283 26.7192C34.9443 26.7512 34.9657 26.7833 34.9817 26.8153C34.9977 26.842 35.0137 26.8741 35.0298 26.9008C35.0458 26.9328 35.0672 26.9649 35.0832 27.0023C35.0885 27.013 35.0939 27.029 35.0992 27.0397L39.9763 29.4542L40.6761 27.2427L42.3001 30.6027L42.893 30.8965L44.1911 28.8399L44.6772 31.7833L46.2157 32.5418L47.9304 30.608L48.0212 33.4339L52.4763 35.6347L53.2456 33.7384L53.3738 33.4232L54.6505 36.7031L57.1238 37.9264C53.0319 22.8677 42.6473 22.9424 36.7712 24.3474Z" fill="#18CC34"/>
<path d="M14.6505 46.2809L14.6291 46.1046C14.4795 44.8706 14.3994 43.6741 14.3941 42.5416C14.3567 37.1249 15.9379 32.8942 19.0949 29.9775L19.1537 29.9241C20.7616 28.4551 22.7648 27.3333 25.1045 26.5854C26.8299 26.0352 28.4859 25.7734 29.7466 25.6559L25.222 25.0416L25.8524 22.9262L22.7755 24.7104L22.0169 24.6089L22.0917 22.3172L20.1526 24.3471L18.3524 24.1014L18.0372 21.6762L16.4667 23.8504L11.4133 23.1666L11.8834 20.9444L9.14299 22.8407L9.12162 22.8514H9.09492L6.18359 22.4561L6.31714 22.3386C6.44 22.2371 6.56821 22.1249 6.72846 21.986C6.75517 21.9593 6.78723 21.938 6.81394 21.9113L6.85133 21.8792C6.94748 21.7991 7.04364 21.7189 7.13979 21.6442L7.16116 21.6281C7.20389 21.5961 7.24129 21.564 7.28402 21.532C7.38017 21.4572 7.47633 21.3771 7.57248 21.3023L7.69534 21.2061C7.8556 21.0833 7.98381 20.9871 8.10133 20.8963L8.11735 20.8856C8.23487 20.7948 8.36308 20.704 8.50197 20.6025C8.52868 20.5811 8.56073 20.5598 8.58744 20.5384L8.62483 20.5117C8.72098 20.4422 8.8118 20.3781 8.90795 20.314L8.95603 20.282C8.98274 20.2606 9.01479 20.2392 9.0415 20.2232C9.13765 20.1591 9.2338 20.0897 9.32996 20.0309L9.37269 19.9989C9.39406 19.9828 9.41543 19.9668 9.44214 19.9561C9.58637 19.86 9.71457 19.7798 9.83744 19.6997L9.84278 19.6944C9.84812 19.689 9.85346 19.689 9.8588 19.6837C9.97098 19.6142 10.0885 19.5341 10.2274 19.454C10.2594 19.4326 10.2915 19.4113 10.3289 19.3952L10.3449 19.3845C10.4357 19.3258 10.5319 19.2724 10.6227 19.2189L10.7456 19.1442C10.8417 19.0907 10.9379 19.032 11.034 18.9786L11.0661 18.9572C11.0874 18.9465 11.1088 18.9305 11.1302 18.9198C11.2744 18.8397 11.3973 18.7702 11.5148 18.7115L11.5308 18.7008C11.6537 18.6367 11.7712 18.5726 11.8887 18.5138L11.9956 18.4604C12.0864 18.4123 12.1772 18.3696 12.268 18.3269C12.3054 18.3108 12.3428 18.2948 12.3748 18.2734L12.3802 18.2681C12.4763 18.2254 12.5725 18.1773 12.6686 18.1345L12.706 18.1185C12.722 18.1132 12.7434 18.1025 12.7594 18.0972C12.8823 18.0437 13.0105 17.985 13.1334 17.9369L13.1601 17.9262C13.2723 17.8781 13.3898 17.8301 13.502 17.7873C13.5287 17.7766 13.55 17.766 13.5767 17.7606L13.6035 17.7499C13.6943 17.7179 13.7797 17.6805 13.8706 17.6484C13.9079 17.6324 13.9453 17.6217 13.9774 17.6057C14.0735 17.5737 14.1644 17.5363 14.2605 17.5042L14.2926 17.4935C14.3086 17.4882 14.3246 17.4828 14.3406 17.4775C14.4742 17.4348 14.5917 17.392 14.7039 17.36L14.7306 17.3493C14.8374 17.3172 14.9496 17.2852 15.0564 17.2531L15.1579 17.2264C15.2434 17.1997 15.3289 17.1784 15.4197 17.157C15.4571 17.1463 15.4891 17.141 15.5265 17.1303C15.6173 17.1089 15.7082 17.0822 15.8043 17.0608L15.8364 17.0555C15.8524 17.0501 15.8631 17.0501 15.8791 17.0448C15.9966 17.0181 16.1141 16.9914 16.2263 16.97C16.2317 16.97 16.2423 16.9647 16.253 16.9647L16.2691 16.9593C16.3705 16.938 16.4667 16.9219 16.5682 16.9006L16.6697 16.8845C16.7498 16.8685 16.8353 16.8578 16.9154 16.8418C16.9475 16.8365 16.9849 16.8311 17.0169 16.8258C17.1024 16.8151 17.1932 16.7991 17.2787 16.7884L17.3054 16.7831C17.3214 16.7831 17.3374 16.7777 17.3481 16.7777C17.4603 16.7617 17.5725 16.751 17.6793 16.7403C17.69 16.7403 17.706 16.7403 17.7167 16.735H17.7381C17.8289 16.7243 17.9197 16.719 18.0105 16.7083L18.112 16.7029C18.1868 16.6976 18.2669 16.6922 18.3417 16.6869L18.4485 16.6816C18.5287 16.6762 18.6141 16.6762 18.6943 16.6709H18.7103C18.7317 16.6709 18.7477 16.6709 18.7691 16.6709C18.8759 16.6709 18.9827 16.6655 19.0842 16.6655H19.0949H19.1163C19.2926 16.6655 19.4742 16.6709 19.6451 16.6762C19.6558 16.6762 19.6665 16.6762 19.6772 16.6762H19.6879C19.8535 16.6816 20.0244 16.6922 20.19 16.7083L20.2487 16.7136C20.4143 16.7296 20.5746 16.7457 20.7295 16.7617C20.7509 16.7617 20.7723 16.767 20.7936 16.7724C20.9432 16.7937 21.1035 16.8151 21.2584 16.8418L21.3278 16.8525C21.4827 16.8792 21.6376 16.9059 21.7819 16.938L21.8513 16.954C22.0009 16.986 22.1451 17.0181 22.2893 17.0555L22.3588 17.0715C22.503 17.1089 22.6473 17.1463 22.7861 17.189C22.8075 17.1944 22.8342 17.2051 22.8556 17.2104C22.9891 17.2478 23.128 17.2905 23.2776 17.3386H23.2829C23.3043 17.344 23.3257 17.3493 23.3417 17.36C23.4752 17.4027 23.6141 17.4508 23.7584 17.5042L23.7851 17.5149C23.7958 17.5202 23.8118 17.5256 23.8225 17.5309C23.9507 17.579 24.0896 17.6324 24.2338 17.6912L24.2872 17.7125C24.4208 17.766 24.5543 17.8247 24.6985 17.8888L24.7413 17.9102C24.8748 17.969 25.0137 18.0331 25.1526 18.1025L25.1953 18.1239C25.3342 18.1933 25.4678 18.2628 25.596 18.3269L25.644 18.3536C25.7776 18.423 25.9005 18.4925 26.018 18.5566C26.0393 18.5672 26.0554 18.5779 26.0767 18.5886C26.2049 18.6634 26.3225 18.7275 26.4293 18.7969C26.4507 18.8076 26.472 18.8236 26.4934 18.8343C26.6109 18.9038 26.7231 18.9786 26.8299 19.0427L26.8994 19.0854C27.0169 19.1602 27.1237 19.2296 27.2199 19.2991L27.2893 19.3472C27.4015 19.4219 27.503 19.4967 27.5992 19.5662C27.6205 19.5822 27.6472 19.5982 27.6686 19.6142C27.7701 19.689 27.8716 19.7638 27.9678 19.8333L28.0372 19.8867C28.1334 19.9615 28.2349 20.0363 28.331 20.111L28.3951 20.1591C28.4859 20.2286 28.5767 20.3087 28.6782 20.3888L28.737 20.4369C28.8331 20.517 28.924 20.5972 29.0148 20.6719L29.0682 20.72C29.159 20.8001 29.2552 20.8803 29.3406 20.9657L29.3887 21.0085C29.4795 21.0939 29.5703 21.1741 29.6611 21.2595L29.6985 21.2969C29.7893 21.3824 29.8801 21.4679 29.971 21.5587L30.003 21.5907C30.0938 21.6816 30.1846 21.767 30.2701 21.8578L30.2968 21.8899C30.3823 21.9754 30.4678 22.0608 30.5479 22.1516L30.5746 22.1837C30.6547 22.2692 30.7349 22.3546 30.8096 22.4348L30.8417 22.4722C30.9165 22.5523 30.9913 22.6377 31.0607 22.7179L31.0928 22.7553C31.1622 22.8354 31.2316 22.9155 31.3011 22.9903L31.3331 23.0277C31.3545 23.0544 31.3759 23.0811 31.4026 23.1078L29.4475 18.5566L31.5842 17.9903L28.4592 16.2916L28.1547 15.5918L30.1526 14.4593L27.4015 13.8717L26.6697 12.2051L28.5714 10.6719L25.9058 10.4636L23.8599 5.78413L26.0019 5.03093L22.9411 3.67409L22.925 3.64738L21.7445 0.955078L21.9154 1.0085C28.2616 3.04375 32.4282 6.30764 34.3032 10.704C35.8363 14.3044 35.5372 18.0491 34.9282 20.7467C34.9549 20.6933 34.987 20.6452 35.0137 20.5918L35.0404 20.5384C35.1045 20.4262 35.1633 20.314 35.2327 20.2019L35.2594 20.1538C35.3289 20.0363 35.3983 19.9187 35.4678 19.8012L35.4838 19.7692C35.5586 19.6463 35.6387 19.5181 35.7188 19.3899L35.7348 19.3632C35.815 19.2403 35.8951 19.1175 35.9699 18.9999L35.9966 18.9572C36.0767 18.8397 36.1569 18.7275 36.237 18.61L36.269 18.5619C36.3492 18.4497 36.4293 18.3375 36.5201 18.22C36.5308 18.204 36.5415 18.188 36.5522 18.1773C36.6376 18.0651 36.7231 17.9529 36.8246 17.8247L36.8353 17.814C36.8406 17.8087 36.846 17.798 36.8513 17.7927C36.9528 17.6645 37.0543 17.5416 37.1558 17.4187C37.1558 17.4134 37.1611 17.4134 37.1665 17.4081C37.268 17.2905 37.3695 17.1677 37.4763 17.0501L37.503 17.0181C37.6045 16.9006 37.7113 16.7884 37.8128 16.6816L37.8556 16.6388C37.9624 16.5266 38.0692 16.4198 38.1707 16.3183L38.2135 16.2756C38.3203 16.1687 38.4325 16.0619 38.5447 15.9551L38.5767 15.923C38.7049 15.8001 38.8278 15.6933 38.9507 15.5918C38.956 15.5865 38.9613 15.5865 38.9667 15.5811C39.0949 15.4743 39.2231 15.3621 39.3566 15.2553L39.3833 15.2339C39.5116 15.1271 39.6451 15.0309 39.768 14.9348C39.7786 14.9294 39.7893 14.9187 39.8 14.9134L39.8107 14.9027C39.9442 14.8066 40.0724 14.7104 40.2007 14.6249L40.2487 14.5929C40.3876 14.5021 40.5212 14.4113 40.6547 14.3258L40.7028 14.2991C40.847 14.2083 40.9913 14.1175 41.1408 14.0373C41.1515 14.032 41.1568 14.0266 41.1675 14.0213C41.3278 13.9305 41.488 13.8397 41.643 13.7596L41.6643 13.7489C41.8192 13.6687 41.9795 13.5886 42.1398 13.5138L42.1878 13.4925C42.3427 13.4177 42.503 13.3482 42.6579 13.2841L42.7167 13.2628C42.8716 13.1987 43.0372 13.1346 43.2028 13.0705L43.2562 13.0491C43.4325 12.985 43.6034 12.9262 43.769 12.8728L43.8064 12.8621C43.9987 12.8034 44.1857 12.7446 44.3727 12.6965H44.378C44.565 12.6484 44.7573 12.6004 44.9549 12.5523L44.9977 12.5416C45.1793 12.5042 45.3662 12.4668 45.5586 12.4294L45.6227 12.4187C45.8043 12.3867 45.9966 12.36 46.1889 12.3333C46.2103 12.3279 46.2316 12.3279 46.2583 12.3226C46.456 12.2959 46.6536 12.2745 46.8513 12.2585L46.9047 12.2531C47.1237 12.2371 47.3374 12.2211 47.5511 12.2104H47.5671C47.7861 12.1997 48.0158 12.1944 48.2509 12.1944C48.2669 12.1944 48.2776 12.1944 48.2883 12.1944H48.3096C48.4378 12.1944 48.5714 12.1944 48.7103 12.1997H48.7209C48.7477 12.1997 48.7744 12.1997 48.8064 12.1997C48.9613 12.2051 49.1109 12.2104 49.2605 12.2211C49.2818 12.2211 49.3032 12.2211 49.3246 12.2264H49.3513C49.4795 12.2318 49.6184 12.2425 49.7626 12.2585L49.8427 12.2638C49.9923 12.2799 50.1526 12.2959 50.3182 12.3119C50.3556 12.3172 50.3876 12.3226 50.425 12.3226C50.5906 12.344 50.7402 12.36 50.8737 12.3813L50.9218 12.3867C51.0714 12.4081 51.2316 12.4348 51.4186 12.4668L51.5308 12.4882C51.7124 12.5202 51.878 12.5523 52.0436 12.5843C52.2092 12.6164 52.3748 12.6538 52.5671 12.6965C52.6045 12.7072 52.6472 12.7125 52.6846 12.7232C52.8609 12.766 53.0372 12.8087 53.2081 12.8514L53.2722 12.8675C53.4271 12.9049 53.5927 12.9529 53.7583 12.9957L53.8705 13.0277C54.0521 13.0758 54.2338 13.1292 54.41 13.188L54.5115 13.22C54.6665 13.2681 54.8267 13.3162 55.003 13.3749C55.0244 13.3803 55.0457 13.391 55.0671 13.3963L55.1045 13.407C55.2808 13.4658 55.4624 13.5299 55.6654 13.5993L55.7882 13.642C55.9592 13.7008 56.1301 13.7649 56.3117 13.8343L56.3812 13.861C56.5628 13.9305 56.7551 14.0053 56.9635 14.0907C56.9955 14.1068 57.0329 14.1175 57.0703 14.1335L57.1023 14.1495C57.332 14.2457 57.5244 14.3258 57.7006 14.4006L57.8662 14.47L55.1793 15.7414L55.1526 15.7307L51.9795 14.7531L53.0959 16.7296L48.4859 18.9091L46.3385 17.3172L46.7658 19.7211L45.1205 20.501L42.6579 19.1388L43.4218 21.3023L42.7327 21.6281L42.706 21.6228L39.2605 20.8536L40.4998 22.6805L37.4549 24.1228C43.4271 22.8781 53.2455 23.3589 57.1771 37.9102L57.2252 38.0811L54.5703 36.767L54.5543 36.735L53.3523 33.642L52.4976 35.7467L47.925 33.4871L47.8395 30.8162L46.2209 32.6431L44.5917 31.8365L44.5863 31.7937L44.1323 29.0587L42.8983 30.9978L42.2145 30.6612L42.2039 30.6345L40.6654 27.4561L40.003 29.5608L35.0137 27.0982L34.9816 27.0341C34.971 27.0074 34.9549 26.986 34.9442 26.9593L34.9175 26.9112C34.9069 26.8899 34.8962 26.8739 34.8855 26.8525C34.8695 26.8258 34.8588 26.8044 34.8428 26.7777L34.8321 26.7617C34.816 26.735 34.8 26.7083 34.784 26.6815C34.768 26.6602 34.7519 26.6388 34.7413 26.6174L34.7145 26.5801C34.6985 26.5587 34.6825 26.5373 34.6718 26.516C34.6558 26.4892 34.6344 26.4679 34.6184 26.4465L34.6131 26.4412C34.5917 26.4145 34.5703 26.3877 34.5543 26.3664C34.5329 26.3397 34.5116 26.3183 34.4902 26.2916C34.4688 26.2649 34.4475 26.2435 34.4261 26.2221C34.4047 26.2008 34.378 26.1794 34.3566 26.158C34.3353 26.1367 34.3086 26.1153 34.2872 26.0939C34.2605 26.0726 34.2391 26.0565 34.2124 26.0352C34.1857 26.0192 34.1643 25.9978 34.1376 25.9818C34.1109 25.9657 34.0842 25.9444 34.0575 25.9283C34.0308 25.9123 34.0041 25.8963 33.972 25.8803C33.9453 25.8642 33.9133 25.8536 33.8866 25.8375C33.8598 25.8268 33.8278 25.8108 33.7957 25.8001C33.7637 25.7895 33.737 25.7788 33.7049 25.7681C33.6729 25.7574 33.6408 25.7467 33.6088 25.7414C33.5767 25.7307 33.5447 25.7254 33.5126 25.7147C33.4806 25.7093 33.4432 25.6986 33.4058 25.6933L33.3844 25.688C33.3577 25.6826 33.331 25.6773 33.2989 25.6773C33.2616 25.6719 33.2242 25.6719 33.1814 25.6666H33.1761C33.144 25.6666 33.112 25.6613 33.0746 25.6613C33.0639 25.6613 33.0586 25.6613 33.0532 25.6613C33.0479 25.6613 33.0479 25.6613 33.0425 25.6613H33.0372C33.0319 25.6613 33.0265 25.6613 33.0212 25.6613C32.9624 25.6613 32.909 25.6613 32.8556 25.6666C32.7968 25.6719 32.7381 25.6773 32.6846 25.6826C32.4816 25.7093 32.2947 25.7841 32.1504 25.9016C32.1451 25.907 32.1344 25.9123 32.1291 25.923C32.1237 25.9283 32.1184 25.9337 32.1131 25.939C31.8353 26.1848 31.7178 26.5533 31.7498 27.0715V27.1036L31.7284 27.1303L27.4443 31.9326L26.0287 30.2339L25.7883 33.7809L25.2808 34.3525L23.4165 33.0117L24.0255 35.7574L22.8235 37.1142L20.6334 36.0191L21.5575 38.5298L18.1654 42.3386L16.5842 40.7093L16.627 44.0587L16.6056 44.0854L14.6505 46.2809ZM25.4304 24.9027L30.5051 25.5918L30.4998 25.7521C29.2071 25.8322 27.2359 26.0726 25.1579 26.735C22.8342 27.4775 20.8524 28.5886 19.2658 30.0416L19.2071 30.095C16.0874 32.9796 14.5223 37.1677 14.5597 42.5416C14.565 43.61 14.6398 44.7424 14.7733 45.907L16.472 43.9999L16.424 40.3087L18.1654 42.1035L21.3812 38.4924L20.3449 35.6986L22.7808 36.9166L23.8545 35.7147L23.1708 32.6377L25.2594 34.1442L25.6334 33.7221L25.8951 29.8279L27.4389 31.6976L31.5735 27.0555C31.5468 26.5053 31.6857 26.1046 31.9902 25.8268C31.9955 25.8215 32.0009 25.8162 32.0062 25.8162C32.0169 25.8055 32.0276 25.7948 32.0383 25.7895C32.2039 25.6559 32.4175 25.5704 32.6526 25.5384C32.7113 25.533 32.7754 25.5224 32.8342 25.5224C32.8876 25.517 32.9464 25.517 33.0105 25.517H33.0158C33.0265 25.517 33.0372 25.517 33.0479 25.517H33.0586C33.1013 25.517 33.1334 25.5224 33.1707 25.5224H33.1761C33.2188 25.5224 33.2616 25.5277 33.3043 25.533C33.3363 25.5384 33.3631 25.5437 33.3951 25.5437L33.4111 25.5491C33.4539 25.5544 33.4913 25.5598 33.5287 25.5704C33.566 25.5811 33.5981 25.5865 33.6355 25.5971C33.6729 25.6078 33.7103 25.6185 33.7423 25.6292C33.7744 25.6399 33.8064 25.6506 33.8438 25.6666C33.8759 25.6773 33.9079 25.6933 33.94 25.7093C33.972 25.7254 34.0041 25.7414 34.0361 25.7574C34.0682 25.7734 34.0949 25.7895 34.1269 25.8055C34.159 25.8215 34.1857 25.8429 34.2124 25.8589C34.2391 25.8749 34.2658 25.8963 34.2979 25.9177C34.3246 25.939 34.3513 25.9604 34.378 25.9818C34.4047 26.0031 34.4314 26.0245 34.4528 26.0459C34.4795 26.0672 34.5062 26.0939 34.5276 26.1153C34.5543 26.142 34.5757 26.1634 34.597 26.1901C34.6237 26.2168 34.6451 26.2435 34.6665 26.2702C34.6878 26.2969 34.7092 26.3183 34.7252 26.345L34.7359 26.3557C34.7573 26.3824 34.7786 26.4038 34.7947 26.4305C34.8107 26.4518 34.8267 26.4732 34.8428 26.4999L34.8695 26.5373C34.8855 26.5587 34.9015 26.5854 34.9175 26.6068C34.9336 26.6335 34.9549 26.6655 34.971 26.6922L34.9816 26.7083C34.9977 26.735 35.0137 26.7617 35.0297 26.7884C35.0404 26.8098 35.0511 26.8311 35.0618 26.8525L35.0885 26.9006C35.1045 26.9273 35.1152 26.954 35.1312 26.9807L35.1366 26.9914L39.9068 29.3525L40.6387 27.0395L42.3427 30.5544L42.8502 30.8055L44.2231 28.6313L44.7412 31.7403L46.1889 32.4561L47.9944 30.4155L48.0906 33.3963L52.4229 35.5384L53.363 33.22L54.6985 36.6655L56.9848 37.798C55.1953 31.2969 52.0382 27.0074 47.5938 25.0523C43.7103 23.3429 39.581 23.7756 36.8032 24.438L36.7498 24.2884L40.2754 22.6217L38.9026 20.5972L42.7167 21.4465L43.2295 21.2061L42.3748 18.7809L45.1312 20.3087L46.5895 19.6196L46.1141 16.938L48.5073 18.7168L52.8769 16.6495L51.6483 14.4754L55.1793 15.5651L57.487 14.4754C57.3534 14.4219 57.2145 14.3632 57.0543 14.2937L57.0222 14.2777C56.9902 14.2617 56.9528 14.251 56.9207 14.235C56.7124 14.1495 56.5201 14.0747 56.3385 14.0053L56.269 13.9786C56.0874 13.9091 55.9165 13.845 55.7455 13.7863L55.6226 13.7435C55.425 13.6741 55.2434 13.61 55.0671 13.5512L55.0297 13.5405C55.0083 13.5352 54.987 13.5245 54.9656 13.5192C54.7893 13.4604 54.6291 13.4123 54.4741 13.3643L54.3726 13.3322C54.1964 13.2788 54.0147 13.2254 53.8331 13.1773L53.7209 13.1452C53.55 13.0972 53.3897 13.0544 53.2348 13.017L53.1707 13.001C52.9998 12.9583 52.8235 12.9155 52.6472 12.8781C52.6098 12.8675 52.5724 12.8621 52.5297 12.8514C52.3427 12.8087 52.1718 12.7713 52.0169 12.7393H52.0115C51.8513 12.7072 51.6857 12.6752 51.5041 12.6431L51.3919 12.6217C51.2103 12.5897 51.0447 12.563 50.9004 12.5416L50.8524 12.5363C50.7188 12.5149 50.5692 12.4989 50.4036 12.4775C50.3662 12.4722 50.3342 12.4668 50.3021 12.4668C50.1365 12.4508 49.9816 12.4294 49.8321 12.4187L49.7519 12.4134C49.6024 12.4027 49.4688 12.392 49.3406 12.3813H49.3139C49.2925 12.3813 49.2765 12.376 49.2551 12.376C49.1109 12.3653 48.956 12.36 48.8064 12.3546C48.7797 12.3546 48.753 12.3546 48.7263 12.3546H48.7156C48.5767 12.3493 48.4432 12.3493 48.315 12.3493H48.2936C48.2883 12.3493 48.2776 12.3493 48.2722 12.3493C48.2669 12.3493 48.2615 12.3493 48.2615 12.3493C48.0318 12.3493 47.8021 12.3546 47.5885 12.3653H47.5724C47.3641 12.376 47.1451 12.3867 46.9314 12.4081L46.878 12.4134C46.6803 12.4294 46.4827 12.4508 46.2904 12.4775C46.269 12.4828 46.2477 12.4828 46.2263 12.4882C46.034 12.5149 45.8417 12.5416 45.6654 12.5737L45.6013 12.5843C45.409 12.6164 45.222 12.6538 45.0457 12.6965L45.003 12.7072C44.8053 12.7499 44.613 12.798 44.4314 12.8461H44.4261C44.2445 12.8942 44.0575 12.9529 43.8705 13.0117L43.8331 13.0224C43.6675 13.0758 43.4966 13.1346 43.3256 13.1987L43.2722 13.22C43.112 13.2788 42.9517 13.3429 42.7968 13.407L42.738 13.4284C42.5831 13.4925 42.4282 13.5619 42.2733 13.6367L42.2252 13.6581C42.065 13.7328 41.9047 13.813 41.7551 13.8931L41.7338 13.9038C41.5789 13.9839 41.4186 14.0694 41.2637 14.1602C41.253 14.1655 41.2477 14.1709 41.237 14.1762C41.0927 14.2617 40.9432 14.3472 40.8043 14.438L40.7562 14.4647C40.628 14.5448 40.4891 14.6356 40.3556 14.7264L40.3075 14.7585C40.1846 14.844 40.0564 14.9348 39.9229 15.0363L39.9068 15.0469C39.8962 15.0523 39.8855 15.063 39.8748 15.0683C39.7519 15.1591 39.6237 15.2606 39.4955 15.3621L39.4688 15.3835C39.3353 15.4903 39.2071 15.6025 39.0789 15.7093L39.0682 15.72C38.9453 15.8269 38.8278 15.9337 38.7049 16.0459L38.6729 16.0779C38.5554 16.1848 38.4485 16.2916 38.3417 16.3931L38.2989 16.4358C38.1975 16.5373 38.0906 16.6442 37.9891 16.7563L37.9517 16.7991C37.8502 16.9059 37.7487 17.0181 37.6472 17.1303L37.6205 17.1623C37.5137 17.2798 37.4122 17.4027 37.3107 17.5202C37.3054 17.5256 37.3054 17.5256 37.3054 17.5309C37.2039 17.6538 37.1024 17.7766 37.0009 17.9048C36.9955 17.9102 36.9902 17.9209 36.9848 17.9262L36.9742 17.9369C36.878 18.0598 36.7872 18.1719 36.7071 18.2841C36.6964 18.3001 36.6857 18.3162 36.675 18.3322C36.5895 18.4497 36.5041 18.5619 36.4293 18.6687L36.3972 18.7168C36.3171 18.829 36.237 18.9465 36.1622 19.0587L36.1355 19.1014C36.0554 19.2189 35.9806 19.3365 35.9004 19.4593L35.8844 19.486C35.8043 19.6089 35.7295 19.7371 35.6494 19.86L35.628 19.892C35.5586 20.0095 35.4891 20.1271 35.4197 20.2446L35.393 20.2927C35.3289 20.4048 35.2648 20.517 35.206 20.6292L35.1793 20.6826C35.1205 20.7948 35.0618 20.9016 35.003 21.0085L34.9763 21.0566C34.9175 21.1687 34.8641 21.2756 34.8054 21.3878L34.8 21.3984V21.4198L34.581 21.5961L34.6451 21.3557C35.3395 18.6527 35.8203 14.6303 34.1804 10.7841C32.316 6.45187 28.2402 3.23606 22.0329 1.21683L23.0586 3.55657L26.4346 5.0523L24.0789 5.88563L26.018 10.314L28.9881 10.5491L26.8673 12.2585L27.5137 13.7382L30.596 14.4006L28.3577 15.6719L28.5821 16.1901L32.0116 18.0544L29.6665 18.6741L31.8086 23.5619L31.675 23.6474L31.659 23.6313C31.6002 23.5566 31.5361 23.4818 31.472 23.407C31.4613 23.3963 31.4507 23.3803 31.44 23.3696C31.3759 23.2948 31.3118 23.2147 31.2423 23.1399L31.2103 23.1025C31.1408 23.0224 31.0767 22.9476 31.0019 22.8674L30.9699 22.8301C30.9004 22.7499 30.8257 22.6698 30.7509 22.5897L30.7188 22.5576C30.644 22.4722 30.5639 22.392 30.4838 22.3066L30.4571 22.2745C30.3769 22.189 30.2915 22.1036 30.206 22.0181L30.1793 21.9914C30.0938 21.9006 30.003 21.8151 29.9122 21.7243L29.8801 21.6922C29.7947 21.6068 29.7039 21.5213 29.6131 21.4358L29.5757 21.3984C29.4849 21.3183 29.3994 21.2328 29.3086 21.1527L29.2605 21.11C29.1697 21.0298 29.0789 20.9497 28.9881 20.8696L28.9346 20.8215C28.8438 20.7414 28.753 20.6666 28.6569 20.5865L28.5981 20.5384C28.4966 20.4529 28.4058 20.3781 28.315 20.3087L28.2509 20.2606C28.1547 20.1858 28.0586 20.111 27.9624 20.0363L27.893 19.9828C27.7968 19.9081 27.6953 19.8333 27.5938 19.7638C27.5725 19.7478 27.5458 19.7318 27.5244 19.7157C27.4282 19.6463 27.3267 19.5769 27.2146 19.5021L27.1451 19.454C27.0436 19.3845 26.9421 19.3151 26.8246 19.2403L26.7552 19.1976C26.6483 19.1281 26.5361 19.0587 26.4186 18.9892C26.3972 18.9786 26.3759 18.9625 26.3545 18.9519C26.2477 18.8878 26.1302 18.8183 26.0019 18.7435C25.9806 18.7328 25.9646 18.7222 25.9485 18.7115C25.831 18.6474 25.7081 18.5779 25.5746 18.5085L25.5265 18.4818C25.3983 18.4177 25.2648 18.3482 25.1312 18.2788L25.0885 18.2574C24.9496 18.188 24.8107 18.1239 24.6772 18.0651L24.6344 18.0437C24.4955 17.9796 24.3567 17.9209 24.2284 17.8675L24.175 17.8461C24.0308 17.7873 23.8973 17.7339 23.769 17.6858C23.7584 17.6805 23.7477 17.6751 23.7317 17.6751L23.7049 17.6645C23.5661 17.611 23.4272 17.563 23.2936 17.5202L23.2295 17.4989C23.0799 17.4508 22.9464 17.4081 22.8128 17.3707C22.7915 17.3653 22.7648 17.3546 22.7434 17.3493C22.6045 17.3066 22.4603 17.2692 22.3214 17.2371L22.252 17.2211C22.1077 17.1837 21.9635 17.1516 21.8193 17.1196L21.7498 17.1036C21.6056 17.0769 21.456 17.0448 21.3064 17.0181L21.237 17.0074C21.0821 16.9807 20.9272 16.9593 20.7776 16.9433C20.7562 16.938 20.7349 16.938 20.7135 16.9326C20.5586 16.9113 20.3983 16.8952 20.2381 16.8845L20.1793 16.8792C20.0137 16.8632 19.8481 16.8578 19.6825 16.8472H19.6718C19.6611 16.8472 19.6505 16.8472 19.6398 16.8472C19.4688 16.8418 19.2926 16.8365 19.1163 16.8365H19.0949H19.0842C18.9827 16.8365 18.8759 16.8365 18.7744 16.8418C18.753 16.8418 18.737 16.8418 18.7156 16.8418H18.6996C18.6195 16.8418 18.5393 16.8472 18.4592 16.8525L18.3524 16.8578C18.2776 16.8632 18.2028 16.8685 18.128 16.8739L18.0265 16.8792C17.9357 16.8846 17.8502 16.8952 17.7594 16.9059H17.7381C17.7274 16.9059 17.7167 16.9059 17.706 16.9113C17.5938 16.9219 17.487 16.938 17.3748 16.9487L17.3 16.9593C17.2146 16.97 17.1291 16.9807 17.0383 16.9967C17.0062 17.0021 16.9688 17.0074 16.9368 17.0128C16.8567 17.0234 16.7765 17.0395 16.6911 17.0555L16.5949 17.0715C16.4988 17.0875 16.3973 17.1089 16.3011 17.1303L16.2584 17.141C16.1462 17.1623 16.0287 17.189 15.9111 17.2157C15.8951 17.2211 15.8844 17.2211 15.8684 17.2264L15.8364 17.2318C15.7456 17.2531 15.6547 17.2745 15.5639 17.3012C15.5319 17.3119 15.4945 17.3172 15.4624 17.3279C15.377 17.3493 15.2915 17.376 15.206 17.3974L15.1099 17.4241C15.003 17.4561 14.8962 17.4882 14.7894 17.5202L14.7626 17.5309C14.6505 17.5683 14.5329 17.6057 14.3994 17.6484C14.3834 17.6538 14.3673 17.6591 14.3567 17.6645L14.3246 17.6751C14.2338 17.7072 14.1376 17.7392 14.0415 17.7766C14.0041 17.7873 13.972 17.8034 13.9347 17.814C13.8438 17.8461 13.7584 17.8781 13.6676 17.9155L13.6409 17.9262C13.6141 17.9369 13.5928 17.9476 13.5661 17.9529C13.4539 17.9957 13.3417 18.0437 13.2295 18.0918L13.2082 18.1025C13.08 18.1559 12.9571 18.2093 12.8342 18.2628C12.8182 18.2681 12.8022 18.2788 12.7808 18.2841L12.7434 18.3001C12.6473 18.3429 12.5565 18.3856 12.4603 18.4337L12.3428 18.4871C12.252 18.5298 12.1612 18.5726 12.0703 18.6207L11.9635 18.6741C11.846 18.7328 11.7285 18.7916 11.6056 18.8557L11.5896 18.8664C11.472 18.9251 11.3492 18.9946 11.205 19.0747C11.1836 19.0854 11.1622 19.1014 11.1409 19.1121L11.1088 19.1335C11.0126 19.1869 10.9165 19.2403 10.8203 19.2937L10.6975 19.3525C10.6067 19.4059 10.5105 19.4593 10.4197 19.5181L10.4037 19.5288C10.3716 19.5501 10.3396 19.5662 10.3075 19.5875C10.1686 19.673 10.0511 19.7478 9.93893 19.8172L9.92291 19.8279C9.80004 19.9081 9.67184 19.9882 9.53295 20.0843C9.51158 20.1004 9.49021 20.1164 9.46885 20.1271L9.42611 20.1591C9.32996 20.2232 9.23915 20.2873 9.14299 20.3514C9.11628 20.3728 9.08423 20.3888 9.05752 20.4102L9.00945 20.4422C8.91863 20.5063 8.82248 20.5704 8.73167 20.6399L8.69427 20.6666C8.66757 20.688 8.63551 20.7093 8.6088 20.7254C8.46992 20.8269 8.34171 20.9177 8.22419 21.0085L8.20816 21.0192C8.09064 21.1046 7.96778 21.2008 7.80752 21.3236L7.68466 21.4198C7.58851 21.4946 7.49235 21.5694 7.3962 21.6495C7.35346 21.6816 7.31607 21.7136 7.27334 21.7457L7.25197 21.7617C7.15581 21.8365 7.05966 21.9166 6.96351 21.9967L6.92611 22.0288C6.8994 22.0501 6.86735 22.0769 6.84064 22.0982C6.73915 22.1837 6.64834 22.2585 6.56287 22.3333L9.08957 22.6751L12.1238 20.5704L11.6056 23.017L16.3973 23.6687L18.1441 21.2542L18.4966 23.9572L20.0938 24.1762L22.2626 21.8899L22.1825 24.4593L22.7434 24.5341L26.1195 22.5736L25.4304 24.9027Z" fill="white"/>
<path d="M33.7694 47.6272C34.3463 47.5204 34.9339 47.4509 35.5215 47.4189C35.7458 47.4082 35.9702 47.3975 36.1946 47.3975C36.232 47.3975 36.2693 47.3975 36.3067 47.3975C36.6753 47.3975 37.0386 47.4189 37.4072 47.4349C37.4072 47.3067 37.4018 47.1838 37.4018 47.0556C37.4018 47.0129 37.4018 46.9702 37.3965 46.9221C37.3965 46.9061 37.3965 46.89 37.3965 46.874C37.0012 46.8206 36.5952 46.7992 36.1946 46.7885C36.0877 46.7832 35.9755 46.7832 35.8687 46.7832C35.7886 46.7832 35.7085 46.7832 35.6283 46.7832C34.9606 46.7939 34.2982 46.858 33.6358 46.9702C32.7918 47.1091 31.9585 47.3281 31.1572 47.6272C31.1305 47.6379 31.0984 47.6486 31.0717 47.6593C31.0076 47.937 30.9435 48.2148 30.8794 48.4926C31.061 48.4125 31.248 48.343 31.4296 48.2736C32.1828 47.9905 32.9681 47.7714 33.7694 47.6272Z" fill="#C46C30"/>
<path d="M34.127 43.797C34.7413 43.7062 35.3609 43.6688 35.9806 43.6848C36.1195 43.6848 36.2584 43.6902 36.3973 43.7008C36.6911 43.7169 36.9902 43.7436 37.284 43.7863C37.2787 43.6902 37.2733 43.5993 37.2733 43.5032C37.268 43.4444 37.268 43.3857 37.2626 43.3269C37.2626 43.2842 37.2573 43.2414 37.2573 43.1987C36.9742 43.1506 36.6857 43.1186 36.4026 43.0919C36.2744 43.0812 36.1515 43.0705 36.0233 43.0652C35.3449 43.0278 34.6665 43.0652 33.9934 43.156C33.2669 43.2521 32.5458 43.4284 31.8513 43.6688C31.8086 43.9305 31.7659 44.187 31.7178 44.4434C31.7872 44.4167 31.8513 44.3899 31.9208 44.3686C32.6366 44.0961 33.3791 43.9092 34.127 43.797Z" fill="#C46C30"/>
<path d="M33.951 54.9082C33.935 54.9082 33.9189 54.9082 33.8976 54.9082C33.7053 54.9082 33.513 54.9135 33.3206 54.9189C31.8944 54.9723 30.4734 55.202 29.1059 55.592C29.0098 55.6187 28.9189 55.6454 28.8228 55.6774C28.7373 55.9445 28.6465 56.217 28.561 56.4841C28.6999 56.436 28.8388 56.3932 28.9777 56.3505C29.7149 56.1208 30.4681 55.9392 31.2266 55.811C31.8249 55.7095 32.4285 55.64 33.0322 55.5973C33.4542 55.5706 33.8815 55.5546 34.3036 55.5546C34.8324 55.5546 35.3559 55.5759 35.8847 55.6187C36.3388 55.6561 36.7875 55.7095 37.2362 55.7682L37.2629 55.7736C37.2736 55.6027 37.2843 55.4317 37.295 55.2608C36.9585 55.186 36.6219 55.1272 36.2854 55.0791C35.5108 54.967 34.7309 54.9082 33.951 54.9082Z" fill="#C46C30"/>
<path d="M36.5526 50.7896C36.0505 50.7362 35.543 50.7041 35.0355 50.7041C34.95 50.7041 34.8592 50.7041 34.7738 50.7041C34.6082 50.7094 34.4426 50.7148 34.277 50.7201C32.84 50.8056 31.4191 51.0941 30.0676 51.5909C29.9928 51.8633 29.9126 52.1411 29.8325 52.4135C30.0302 52.3334 30.2332 52.2586 30.4362 52.1838C31.3069 51.874 32.2043 51.655 33.1178 51.5054C33.6039 51.4253 34.09 51.3772 34.5814 51.3505C34.8859 51.3344 35.1904 51.3238 35.4949 51.3238C35.6231 51.3238 35.7513 51.3238 35.8795 51.3291C36.3282 51.3398 36.7716 51.3718 37.215 51.4199C37.2844 51.4253 37.3485 51.4359 37.418 51.4466C37.418 51.265 37.4233 51.0834 37.4233 50.9071C37.1349 50.859 36.8411 50.8216 36.5526 50.7896Z" fill="#C46C30"/>
<path d="M36.0289 39.0587C35.4359 39.032 34.843 39.0694 34.2554 39.1602C33.609 39.2617 32.9733 39.438 32.3644 39.6784C32.343 39.9188 32.3163 40.1645 32.2949 40.4049C32.3216 40.3942 32.3483 40.3782 32.375 40.3675C33.0161 40.0844 33.6892 39.8814 34.3783 39.7585C34.9285 39.6624 35.4894 39.6196 36.0503 39.625C36.0503 39.625 36.0503 39.625 36.0503 39.6196C36.1785 39.6196 36.3013 39.625 36.4295 39.6357C36.6325 39.6463 36.8355 39.6677 37.0385 39.6944C37.0278 39.5128 37.0118 39.3312 36.9958 39.1495C36.8195 39.1228 36.6432 39.1015 36.4669 39.0801C36.3227 39.0801 36.1785 39.0694 36.0289 39.0587Z" fill="#C46C30"/>
<path d="M35.6015 35.0204C35.249 34.999 34.9018 34.9937 34.5652 34.999C33.8921 35.015 33.2191 35.0951 32.562 35.2447C32.562 35.4477 32.562 35.6507 32.562 35.859C33.2191 35.6988 33.8921 35.6026 34.5652 35.5652C34.9391 35.5439 35.3131 35.5492 35.6817 35.5706C35.9007 35.5813 36.125 35.5973 36.3441 35.624C36.4562 35.6347 36.5631 35.6507 36.6753 35.6667C36.6592 35.4904 36.6379 35.3142 36.6165 35.1379C36.28 35.0791 35.9381 35.0417 35.6015 35.0204Z" fill="#C46C30"/>
<path d="M34.7681 31.1206C34.5063 31.1259 34.2499 31.142 33.9882 31.1687C33.438 31.2274 32.8931 31.3396 32.3643 31.5052C32.3749 31.6227 32.3856 31.7349 32.3963 31.8471C32.407 31.9539 32.4177 32.0661 32.423 32.173C32.9572 31.9913 33.5128 31.8631 34.0737 31.783C34.3514 31.7403 34.6346 31.7189 34.9177 31.7082C35.0192 31.7029 35.1207 31.7029 35.2222 31.7029C35.4412 31.7029 35.6602 31.7136 35.8792 31.7296C35.9807 31.7349 36.0822 31.7456 36.1837 31.7563C36.1784 31.7136 36.173 31.6655 36.1623 31.6227C36.1516 31.5426 36.1356 31.4678 36.1249 31.3877C36.1143 31.3289 36.1089 31.2702 36.0982 31.2114C36.0395 31.2007 35.9807 31.1954 35.9166 31.1847C35.5694 31.142 35.2222 31.1206 34.8749 31.1206C34.8482 31.1206 34.8108 31.1206 34.7681 31.1206Z" fill="#C46C30"/>
<path d="M31.1037 60.4317C30.0834 60.4317 29.0577 60.4103 28.1496 60.3462C27.7543 60.3195 27.14 60.2661 27.1347 60.2661L27.0278 60.2554L27.0652 60.1539C27.0759 60.1219 28.3206 56.9862 28.9883 54.9509C29.843 52.3494 30.874 48.1614 30.8847 48.1187C30.89 48.1027 31.2906 46.2063 31.5257 44.999C31.5684 44.7853 31.6058 44.593 31.6379 44.4061C31.7607 43.7651 31.8622 43.2576 31.9744 42.4883C32.343 40.0364 32.5086 37.3708 32.5086 35.9285C32.5086 34.3046 32.4498 33.1614 32.2682 31.3933C32.1934 30.6454 31.9263 29.3099 31.7287 28.3377C31.6005 27.7074 31.5043 27.2106 31.4936 27.061C31.4669 26.6924 31.5043 26.5856 31.5898 26.3292L31.6058 26.2864C31.6913 26.0247 31.7981 25.8751 32.0065 25.7149C32.2896 25.4958 32.5139 25.4638 32.8505 25.4317C33.1283 25.405 33.3686 25.405 33.6304 25.4905C34.2607 25.6881 34.5812 25.9232 34.9018 26.404L34.9552 26.4894C35.0727 26.6657 35.1475 26.7725 35.2543 27.0343C35.3238 27.2052 35.3825 27.3922 35.4413 27.5685L35.468 27.654C35.89 28.9413 36.0182 29.9029 36.2212 31.4894C36.3067 32.1572 36.3868 32.7928 36.4669 33.4018C36.7073 35.2768 36.9156 36.9007 37.0492 38.4873C37.2094 40.3997 37.2629 41.5642 37.343 43.3324L37.3804 44.1123C37.4231 45.0631 37.4498 45.64 37.4765 46.639C37.5353 48.9306 37.5353 50.186 37.4765 52.4937C37.4338 54.1924 37.3911 55.202 37.2629 57.0663C37.1774 58.2736 36.9958 60.1753 36.9958 60.1913L36.9904 60.2661H36.702C36.6699 60.2661 36.5257 60.2714 36.312 60.2821C35.4146 60.3249 33.2778 60.4317 31.1037 60.4317ZM27.2522 60.1165C27.4445 60.1326 27.8665 60.17 28.1603 60.186C30.9968 60.3836 34.9926 60.186 36.3067 60.1219C36.531 60.1112 36.6646 60.1058 36.702 60.1058H36.8409C36.8729 59.7479 37.0278 58.1294 37.1026 57.0556C37.2308 55.1967 37.2735 54.187 37.3163 52.4937C37.375 50.1913 37.375 48.936 37.3163 46.6497C37.2896 45.6561 37.2629 45.0792 37.2201 44.1283L37.1827 43.3484C37.1026 41.5856 37.0492 40.421 36.8889 38.5086C36.7554 36.9221 36.5471 35.3035 36.3067 33.4285C36.2265 32.8195 36.1464 32.1839 36.0609 31.5161C35.8633 29.9403 35.7297 28.9841 35.3184 27.7127L35.2917 27.6272C35.233 27.451 35.1795 27.2747 35.1101 27.1037C35.0086 26.858 34.9391 26.7565 34.827 26.5856L34.7682 26.5001C34.4691 26.0514 34.1699 25.8377 33.5823 25.6508C33.3473 25.576 33.1336 25.576 32.8665 25.6027C32.53 25.6347 32.3483 25.6668 32.108 25.8537C31.921 25.998 31.8409 26.1155 31.7607 26.3505L31.7447 26.3986C31.6592 26.6497 31.6325 26.7298 31.6592 27.0717C31.6699 27.2106 31.7714 27.7287 31.8943 28.327C32.0919 29.3046 32.359 30.6401 32.4338 31.3986C32.6154 33.1721 32.6742 34.3206 32.6742 35.9499C32.6742 37.3922 32.5086 40.0685 32.14 42.5311C32.0225 43.3003 31.9263 43.8131 31.7981 44.4542C31.7607 44.6358 31.7233 44.8281 31.6859 45.0418C31.4562 46.2544 31.0503 48.1507 31.0449 48.1668C31.0342 48.2095 30.0033 52.4082 29.1486 55.0097C28.5396 56.8366 27.4712 59.561 27.2522 60.1165Z" fill="white"/>
<path d="M34.0147 32.0929C36.2262 32.0929 38.0211 30.298 38.0211 28.0865C38.0211 25.8749 36.2262 24.0801 34.0147 24.0801C31.8032 24.0801 30.0083 25.8749 30.0083 28.0865C30.0083 30.298 31.8032 32.0929 34.0147 32.0929Z" fill="#915A1A"/>
<path d="M34.0148 32.1731C31.7605 32.1731 29.9282 30.3408 29.9282 28.0865C29.9282 25.8323 31.7605 24 34.0148 24C36.269 24 38.1013 25.8323 38.1013 28.0865C38.1013 30.3408 36.269 32.1731 34.0148 32.1731ZM34.0148 24.1603C31.8513 24.1603 30.0885 25.9231 30.0885 28.0865C30.0885 30.25 31.8513 32.0128 34.0148 32.0128C36.1782 32.0128 37.941 30.25 37.941 28.0865C37.941 25.9231 36.1782 24.1603 34.0148 24.1603Z" fill="white"/>
<path d="M32.8397 27.8464C33 27.8464 33.1335 27.7128 33.1335 27.5526C33.1335 27.3923 33 27.2588 32.8397 27.2588C32.6794 27.2588 32.5459 27.3923 32.5459 27.5526C32.5459 27.7128 32.6794 27.8464 32.8397 27.8464Z" fill="black"/>
<path d="M33.641 27.8464C33.8012 27.8464 33.9348 27.7128 33.9348 27.5526C33.9348 27.3923 33.8012 27.2588 33.641 27.2588C33.4807 27.2588 33.3472 27.3923 33.3472 27.5526C33.3472 27.7128 33.4807 27.8464 33.641 27.8464Z" fill="black"/>
<path d="M33.2137 28.487C33.374 28.487 33.5075 28.3535 33.5075 28.1932C33.5075 28.033 33.374 27.8994 33.2137 27.8994C33.0535 27.8994 32.9199 28.033 32.9199 28.1932C32.9199 28.3535 33.0535 28.487 33.2137 28.487Z" fill="black"/>
<path d="M46.488 62.9958C46.488 62.4616 46.1248 61.9328 45.425 61.4413C44.7252 60.9499 43.6996 60.5012 42.4015 60.1219C41.1088 59.7426 39.5703 59.4435 37.8769 59.2405C36.1836 59.0375 34.3727 58.9307 32.5404 58.9307C30.7081 58.9307 28.8973 59.0375 27.2039 59.2405C25.5105 59.4435 23.9774 59.7426 22.6793 60.1219C21.3866 60.5012 20.3556 60.9446 19.6558 61.4413C18.956 61.9328 18.5928 62.4616 18.5928 62.9958H32.5351H46.488Z" fill="#FFE81E"/>
<path d="M46.5683 63.076H18.5234V62.9959C18.5234 62.435 18.892 61.8901 19.6185 61.3773C20.329 60.8752 21.3546 60.4318 22.6634 60.0472C23.9721 59.6679 25.4946 59.3688 27.1986 59.1658C28.9027 58.9628 30.7029 58.856 32.5459 58.856C34.3888 58.856 36.189 58.9628 37.8931 59.1658C39.5971 59.3688 41.1249 59.6679 42.4283 60.0472C43.7371 60.4265 44.7627 60.8752 45.4732 61.3773C46.1997 61.8901 46.5683 62.435 46.5683 62.9959V63.076ZM18.689 62.9158H46.408C46.376 62.435 46.0288 61.9596 45.3824 61.5055C44.6826 61.0141 43.6783 60.576 42.3856 60.2021C41.0875 59.8228 39.5704 59.529 37.877 59.326C36.1783 59.1231 34.3888 59.0162 32.5512 59.0162C30.7136 59.0162 28.9241 59.1177 27.2254 59.326C25.532 59.529 24.0149 59.8228 22.7168 60.2021C21.4241 60.576 20.4145 61.0194 19.72 61.5055C19.063 61.9596 18.7211 62.435 18.689 62.9158Z" fill="white"/>
</svg>
