<svg width="31" height="28" viewBox="0 0 31 28" fill="none" xmlns="http://www.w3.org/2000/svg">
<path d="M30.1343 10.3073L27.9624 8.13542C27.7206 7.89334 27.3279 7.89334 27.0861 8.13542L26.5313 8.69026L20.0747 2.23337C19.9235 2.0818 19.704 2.01856 19.4951 2.06816C19.3175 2.10969 18.9499 2.17944 18.4861 2.17944C17.7131 2.17944 16.5761 1.98602 15.5489 1.06542C15.304 0.845965 14.9299 0.855884 14.6968 1.08867L13.426 2.35922C13.3097 2.47545 13.2443 2.63292 13.2443 2.79751C13.2443 2.96179 13.3097 3.11956 13.426 3.2358L17.1121 6.92191L0.496992 23.5373C0.254909 23.7794 0.254909 24.1718 0.496992 24.4139L2.99252 26.9094C3.11372 27.0309 3.27211 27.091 3.43081 27.091C3.58952 27.091 3.74791 27.0309 3.8691 26.9094L20.4845 10.2946L22.7057 12.5159L22.1515 13.0707C21.9094 13.3128 21.9094 13.7052 22.1515 13.9473L24.3231 16.1189C24.5556 16.3514 24.9672 16.3514 25.1997 16.1189L30.1343 11.1842C30.3761 10.9422 30.3761 10.5497 30.1343 10.3073Z" fill="white"/>
</svg>
