<svg width="31" height="30" viewBox="0 0 31 30" fill="none" xmlns="http://www.w3.org/2000/svg">
<path d="M18.3346 14.6752C18.8221 12.6252 17.0346 10.8377 14.9846 11.3252C14.0221 11.5627 13.2346 12.3502 12.997 13.3127C12.5095 15.3627 14.2971 17.1501 16.3471 16.6626C17.3221 16.4251 18.1096 15.6377 18.3346 14.6752Z" stroke="#FFFCFC" stroke-width="2" stroke-linecap="round" stroke-linejoin="round"/>
<path d="M23.1845 21.9875C25.322 19.9875 26.6595 17.15 26.6595 13.9875C26.6595 7.91247 21.7346 3 15.6721 3C9.60956 3 4.68457 7.92497 4.68457 13.9875C4.68457 17.1625 6.03457 20.025 8.19707 22.025" stroke="#FFFCFC" stroke-width="2" stroke-linecap="round" stroke-linejoin="round"/>
<path d="M10.6731 18.6874C9.52306 17.4624 8.81055 15.8124 8.81055 13.9874C8.81055 10.2 11.8856 7.125 15.673 7.125C19.4605 7.125 22.5355 10.2 22.5355 13.9874C22.5355 15.8124 21.823 17.4499 20.673 18.6874" stroke="#FFFCFC" stroke-width="2" stroke-linecap="round" stroke-linejoin="round"/>
<path d="M13.5468 21.3246L11.7468 23.5622C10.3218 25.3497 11.5843 27.9871 13.8718 27.9871H17.4593C19.7468 27.9871 21.0218 25.3372 19.5843 23.5622L17.7843 21.3246C16.7093 19.9621 14.6343 19.9621 13.5468 21.3246Z" stroke="#FFFCFC" stroke-width="2" stroke-linecap="round" stroke-linejoin="round"/>
</svg>
