<svg width="31" height="30" viewBox="0 0 31 30" fill="none" xmlns="http://www.w3.org/2000/svg">
<path d="M5.37461 17.0137L6.25023 18.7387C5.65023 19.3293 5.31836 19.9724 5.31836 20.6249C5.31836 23.0362 9.86898 25.3124 15.6309 25.3124C21.3927 25.3124 25.9434 23.0362 25.9434 20.6249C25.9434 19.9724 25.6096 19.3312 25.0115 18.7405L25.904 17.0287C27.1134 18.0412 27.8184 19.2674 27.8184 20.6249C27.8184 24.4255 22.2946 27.1874 15.6309 27.1874C8.96711 27.1874 3.44336 24.4255 3.44336 20.6249C3.44336 19.2599 4.15586 18.0299 5.37461 17.0137Z" fill="white"/>
<path d="M5.37461 11.3887L6.25023 13.1137C5.65023 13.7062 5.31836 14.3493 5.31836 14.9999C5.31836 17.4112 9.86898 19.6874 15.6309 19.6874C21.3927 19.6874 25.9434 17.4112 25.9434 14.9999C25.9434 14.3474 25.6096 13.7062 25.0115 13.1155L25.904 11.4037C27.1134 12.4162 27.8184 13.6424 27.8184 14.9999C27.8184 18.8005 22.2946 21.5624 15.6309 21.5624C8.96711 21.5624 3.44336 18.8005 3.44336 14.9999C3.44336 13.6349 4.15586 12.4049 5.37461 11.3887Z" fill="white"/>
<path d="M15.6309 15.9375C8.96711 15.9375 3.44336 13.1756 3.44336 9.375C3.44336 5.57438 8.96711 2.8125 15.6309 2.8125C22.2946 2.8125 27.8184 5.57438 27.8184 9.375C27.8184 13.1756 22.2946 15.9375 15.6309 15.9375ZM15.6309 14.0625C21.3927 14.0625 25.9434 11.7863 25.9434 9.375C25.9434 6.96375 21.3927 4.6875 15.6309 4.6875C9.86898 4.6875 5.31836 6.96375 5.31836 9.375C5.31836 11.7863 9.86898 14.0625 15.6309 14.0625Z" fill="white"/>
</svg>
