<svg width="64" height="64" viewBox="0 0 64 64" fill="none" xmlns="http://www.w3.org/2000/svg">
<path d="M12.0664 47.9271C12.0262 47.4596 12.0363 46.992 12.1268 46.5546C12.5239 44.4029 14.3439 42.5075 17.5363 41.3663C20.7288 40.2301 24.6653 40.0843 28.451 40.768C32.2367 41.4568 35.8716 42.9751 38.4507 45.157C41.0348 47.344 42.0655 49.7622 41.6683 51.9139C41.6231 52.1251 41.5879 52.3363 41.5577 52.5575C41.5527 52.5977 41.5477 52.6329 41.5426 52.6731C41.5175 52.8541 41.4923 53.0351 41.4572 53.2261L40.4366 56.0767C40.0847 56.851 39.3808 57.5699 38.4557 58.2033C37.5307 58.8368 36.3894 59.3848 35.1678 59.8222C32.1563 60.8981 28.4309 61.0338 24.8463 60.3853C21.2617 59.7367 17.8229 58.2989 15.3745 56.2376C13.4037 54.5685 12.2323 52.3161 12.1217 50.6068L12.0664 47.9271Z" fill="#AC9EFF"/>
<path d="M29.1396 60.8579C27.7419 60.8579 26.289 60.7272 24.831 60.4607C21.0805 59.782 17.7071 58.3039 15.324 56.2929C13.4488 54.7093 12.1617 52.4771 12.0461 50.6068L11.9908 47.9272C11.9506 47.4094 11.9707 46.9468 12.0511 46.5396C12.4735 44.2621 14.4141 42.402 17.511 41.2959C20.613 40.1899 24.5042 39.9787 28.4659 40.6976C32.4276 41.4166 35.9921 42.9801 38.5008 45.1068C41.0145 47.2334 42.1658 49.6566 41.7435 51.9341C41.6932 52.1553 41.6631 52.3765 41.6329 52.5726L41.6178 52.6882C41.5927 52.8692 41.5676 53.0552 41.5324 53.2412L41.5273 53.2563L40.5017 56.1119C40.1548 56.8661 39.4812 57.59 38.4958 58.2687C37.6059 58.8771 36.4647 59.4452 35.1927 59.8977C33.4029 60.5361 31.3366 60.8579 29.1396 60.8579ZM23.916 40.4312C21.6134 40.4312 19.4416 40.768 17.5613 41.4417C14.5146 42.5277 12.6142 44.3476 12.202 46.5698C12.1215 46.9669 12.1014 47.4194 12.1416 47.9171V47.9272L12.1969 50.6018C12.3126 52.4268 13.5795 54.6188 15.4246 56.1773C17.7825 58.1682 21.1358 59.6362 24.8612 60.3099C28.5866 60.9886 32.2416 60.7875 35.1474 59.7519C36.4093 59.2994 37.5405 58.7464 38.4153 58.1431C39.3756 57.4845 40.0342 56.7806 40.366 56.0516L41.3866 53.2111C41.4167 53.0251 41.4419 52.8441 41.467 52.6731L41.4821 52.5525C41.5123 52.3564 41.5424 52.1251 41.5927 51.9039C42.005 49.6818 40.8687 47.3088 38.4002 45.2224C35.9116 43.1159 32.3723 41.5624 28.4357 40.8485C26.9024 40.5669 25.379 40.4312 23.916 40.4312Z" fill="white"/>
<path d="M15.706 54.3574C13.1319 52.2358 12.061 49.8427 12.428 47.6859C12.79 45.5291 14.5748 43.6187 17.7019 42.4523C23.951 40.1095 33.1815 41.6529 38.3297 45.8911C40.9038 48.0127 41.9746 50.4058 41.6076 52.5626C41.2456 54.7194 39.4609 56.6298 36.3338 57.7962C30.0846 60.139 20.8441 58.6006 15.706 54.3574Z" fill="#E0E0E0"/>
<path d="M18.0036 12.8102L19.9945 9.06977C20.7385 7.65202 22.2468 6.43537 24.4438 5.6008C30.326 3.40881 39.0336 4.85673 43.8851 8.84856C45.7051 10.3468 46.7156 11.9857 46.977 13.5694L47.6457 17.7673C47.7513 18.3606 47.7462 18.9488 47.6457 19.5169C47.2736 21.7541 45.4185 23.7299 42.1908 24.9416C35.7154 27.3648 26.1582 25.7661 20.824 21.3871C18.1644 19.1951 17.0584 16.7166 17.4304 14.4794C17.5209 13.8962 17.717 13.3331 18.0036 12.8102Z" fill="#BA68C8"/>
<g opacity="0.15">
<path d="M18.0036 12.8102L19.9945 9.06977C20.7385 7.65202 22.2468 6.43537 24.4438 5.6008C30.326 3.40881 39.0336 4.85673 43.8851 8.84856C45.7051 10.3468 46.7156 11.9857 46.977 13.5694L47.6457 17.7673C47.7513 18.3606 47.7462 18.9488 47.6457 19.5169C47.2736 21.7541 45.4185 23.7299 42.1908 24.9416C35.7154 27.3648 26.1582 25.7661 20.824 21.3871C18.1644 19.1951 17.0584 16.7166 17.4304 14.4794C17.5209 13.8962 17.717 13.3331 18.0036 12.8102Z" fill="white"/>
</g>
<path d="M17.4306 14.5245C17.8027 12.2873 19.7081 9.90423 22.9558 8.69261C29.4162 6.26935 38.9885 7.8681 44.3076 12.247C46.9671 14.439 48.0078 17.3248 47.6308 19.547C47.4045 20.8994 42.3871 50.9789 42.1609 52.3363C41.7888 54.5735 39.9337 56.5493 36.706 57.7609C30.2306 60.1842 20.6734 58.5855 15.3543 54.2065C12.6947 52.0145 11.5887 49.536 11.9607 47.2987C12.1819 45.9564 17.2044 15.8769 17.4306 14.5245Z" fill="#FF77F1"/>
<path d="M29.8686 58.9726C28.476 58.9726 27.0331 58.852 25.5852 58.6107C21.538 57.937 17.8881 56.3935 15.3039 54.2619C12.7047 52.1202 11.4881 49.6416 11.8802 47.2837C12.1014 45.9715 17.0786 16.1736 17.3552 14.5095C17.5512 13.3431 18.1394 12.1868 19.0595 11.1712C20.0499 10.0752 21.3872 9.19543 22.9306 8.61727C29.4061 6.18899 39.0186 7.78773 44.3578 12.1868C45.6248 13.2275 46.6001 14.4944 47.1782 15.8569C47.7212 17.1238 47.9022 18.4008 47.7061 19.5621C47.5905 20.2509 46.223 28.4407 44.9058 36.359C43.5886 44.2421 42.3468 51.6878 42.2362 52.3514C41.8441 54.7043 39.8884 56.6499 36.7311 57.8364C34.7151 58.5855 32.3622 58.9726 29.8686 58.9726ZM17.506 14.5397C17.2295 16.1987 12.2573 45.9967 12.031 47.3139C11.6489 49.6165 12.8455 52.0448 15.3995 54.1513C19.0193 57.1326 24.6249 58.8218 29.8636 58.8218C32.2918 58.8218 34.6397 58.4598 36.6758 57.6957C39.7828 56.5293 41.6983 54.6239 42.0804 52.3313C42.191 51.6677 43.4328 44.222 44.75 36.3389C46.0722 28.4206 47.4397 20.2308 47.5503 19.542C47.7413 18.4108 47.5603 17.159 47.0325 15.9222C46.4593 14.5849 45.4991 13.3381 44.2522 12.3125C38.9533 7.93856 29.4111 6.34987 22.9809 8.76306C21.4626 9.33117 20.1454 10.2009 19.1701 11.2768C18.2702 12.2723 17.692 13.3984 17.506 14.5397Z" fill="white"/>
<path d="M18.0736 12.8504L20.0695 9.10995C20.8035 7.7123 22.2967 6.5057 24.4786 5.67617C27.3996 4.58017 31.0294 4.39416 34.5386 4.98237C38.0478 5.56556 41.4213 6.92299 43.8345 8.90885C45.6444 10.397 46.6398 12.0209 46.8962 13.5844L47.5649 17.7824C47.6654 18.3656 47.6604 18.9488 47.5649 19.5068C47.1979 21.7088 45.3729 23.6645 42.1603 24.8711C38.9377 26.0777 34.9459 26.2839 31.0898 25.6403C27.2337 24.9968 23.5234 23.5087 20.8689 21.3268C18.2194 19.1448 17.1335 16.6914 17.5005 14.4894C17.596 13.9162 17.787 13.3632 18.0736 12.8504Z" fill="#FFC8FA"/>
<path d="M35.3481 26.0725C33.9555 26.0725 32.5227 25.9518 31.0747 25.7105C27.0427 25.0368 23.3978 23.5034 20.8187 21.3818C18.2396 19.2602 17.033 16.8068 17.4251 14.474C17.5257 13.8858 17.7217 13.3228 18.0083 12.8049L19.9992 9.06446C20.7634 7.61152 22.3018 6.40995 24.4485 5.59549C27.2941 4.53469 30.8787 4.28332 34.5487 4.89667C38.2238 5.51003 41.537 6.9127 43.8798 8.84325C45.6293 10.2861 46.7002 11.9151 46.9717 13.5641L47.6403 17.762C47.7409 18.3452 47.7409 18.9284 47.6403 19.5116V19.5166C47.2532 21.8393 45.3126 23.7649 42.1855 24.9363C40.1795 25.6904 37.8367 26.0725 35.3481 26.0725ZM18.139 12.8854C17.8625 13.3881 17.6714 13.9311 17.5759 14.5042C17.1989 16.7817 18.3854 19.1798 20.9192 21.2662C23.4832 23.3677 27.098 24.896 31.1049 25.5647C35.1169 26.2334 39.0333 25.9619 42.1403 24.8005C45.2171 23.6442 47.1225 21.7639 47.4996 19.4965V19.4915C47.6001 18.9284 47.6001 18.3603 47.4996 17.7972V17.7922L46.8309 13.5993C46.5645 11.9905 45.5137 10.3867 43.7943 8.97397C41.4716 7.05849 38.1836 5.67091 34.5337 5.06258C30.8887 4.45425 27.3293 4.7006 24.5088 5.75135C22.3973 6.55072 20.884 7.72715 20.1399 9.1449L18.139 12.8854Z" fill="white"/>
<path d="M43.8851 8.83322C46.3083 10.8291 47.3188 13.0865 46.9719 15.1176C46.6251 17.1487 44.9559 18.9536 42.0098 20.0596C36.1327 22.2566 27.4251 20.8037 22.5785 16.8118C20.1553 14.8159 19.1448 12.5586 19.4917 10.5275C19.8386 8.49637 21.5077 6.6915 24.4538 5.58545C30.341 3.38844 39.0335 4.84138 43.8851 8.83322Z" fill="#BA68C8"/>
<path d="M17.5357 18.5415C17.5357 18.5415 15.5046 30.326 14.5493 36.1327C13.9611 39.7173 13.7952 40.7278 14.2829 41.3211C15.1677 42.3869 16.7313 37.3293 17.2591 35.3635C18.9132 30.8287 21.0499 23.6394 22.4073 23.3981C18.1038 21.201 17.5357 18.5415 17.5357 18.5415Z" fill="#FFC8F9"/>
<path d="M25.0168 5.35918C22.2366 6.40489 20.6328 8.10922 20.3111 10.0448C19.9843 11.9653 20.9345 14.107 23.2421 15.9873C27.8372 19.773 36.0723 21.1455 41.6528 19.0541C44.433 18.0084 46.0368 16.304 46.3585 14.3684C46.6853 12.4479 45.7351 10.3062 43.4275 8.42595C38.8273 4.64527 30.5923 3.27277 25.0168 5.35918Z" fill="#C9C0FF"/>
<path d="M31.9799 20.3363C28.893 19.8286 25.9268 18.627 23.7901 16.8975C21.7188 15.2083 20.7586 13.2576 21.0552 11.3975C21.3719 9.53728 22.9103 8.00892 25.4241 7.08387C30.5722 5.19353 38.209 6.46548 42.4623 9.92943C44.5336 11.6187 45.4938 13.5693 45.1972 15.4295C44.8805 17.2897 43.3421 18.818 40.8283 19.7431C38.2593 20.7033 35.0668 20.8592 31.9799 20.3363ZM25.4744 7.22464C23.0209 8.12958 21.4926 9.62275 21.1859 11.4377C20.8792 13.2476 21.8395 15.153 23.8756 16.802C28.0987 20.2358 35.6701 21.5027 40.773 19.6275C43.2264 18.7225 44.7548 17.2293 45.0615 15.4144C45.3681 13.6045 44.4079 11.6991 42.3718 10.0501C38.1637 6.5962 30.5773 5.3343 25.4744 7.22464Z" fill="#AC9EFF"/>
<path d="M19.7229 9.10986L19.4765 10.5729C19.1296 12.604 20.1402 14.8613 22.5634 16.8572C27.4099 20.8491 36.1075 22.302 41.9947 20.105C44.9408 18.9989 46.6099 17.1941 46.9568 15.163L47.2032 13.7C46.8563 15.7311 45.1871 17.5359 42.241 18.642C36.3639 20.839 27.6563 19.3861 22.8098 15.3942C20.3865 13.4033 19.3961 11.141 19.7229 9.10986Z" fill="#AC9EFF"/>
<path d="M43.5935 7.76263C38.9581 4.04228 30.6728 2.65972 25.0722 4.67575C22.2719 5.6913 20.6832 7.34534 20.3715 9.23568C20.3313 9.47197 20.3112 9.72335 20.3162 9.9697C20.8742 8.38101 22.4026 7.0085 24.8259 6.13875C30.4114 4.12775 38.6917 5.51031 43.3321 9.22563C45.3481 10.8445 46.3435 12.6393 46.3536 14.3285C46.439 14.0872 46.4943 13.8509 46.5346 13.6146C46.8714 11.7042 45.8961 9.61274 43.5935 7.76263Z" fill="#AC9EFF"/>
<path d="M41.8793 18.2094C44.6947 17.1889 46.3135 15.5147 46.6303 13.5892C46.952 11.6787 45.9666 9.56215 43.6389 7.68187C41.3061 5.81164 38.0634 4.53466 34.705 3.97158C31.3467 3.41353 27.8676 3.56938 25.0573 4.5799C22.2419 5.60049 20.6281 7.28972 20.3063 9.20017C19.9845 11.1106 20.9699 13.2272 23.2977 15.1075C25.6304 16.9777 28.8731 18.2547 32.2315 18.8178C35.5949 19.3808 39.0739 19.225 41.8793 18.2094ZM24.7104 4.24306C27.6414 3.14707 31.2713 2.96105 34.7804 3.54927C38.2846 4.13246 41.6581 5.48988 44.0713 7.47574C46.4845 9.4616 47.4698 11.6938 47.133 13.6897C46.7911 15.6856 45.1522 17.4704 42.2211 18.5714C39.2901 19.6624 35.6603 19.8534 32.1511 19.2652C28.6469 18.682 25.2735 17.3246 22.8603 15.3387C20.4471 13.3529 19.4617 11.1207 19.7985 9.12476C20.1404 7.12884 21.7794 5.33906 24.7104 4.24306Z" fill="white"/>
<path d="M36.0323 19.6724C34.7653 19.6724 33.4582 19.5618 32.136 19.3406C28.4659 18.7273 25.1528 17.3246 22.8099 15.394C20.4571 13.4584 19.3611 11.2262 19.7231 9.10966C20.085 6.98805 21.8447 5.23346 24.6852 4.16763C27.5358 3.10683 31.1254 2.86048 34.7905 3.47384C38.4605 4.08719 41.7737 5.48986 44.1165 7.42042C46.4693 9.35601 47.5653 11.5882 47.2034 13.7048C46.8414 15.8264 45.0817 17.581 42.2412 18.6468C40.4213 19.3255 38.2896 19.6724 36.0323 19.6724ZM24.7355 4.31343C21.9502 5.35915 20.2258 7.07352 19.8739 9.13982C19.522 11.2011 20.6029 13.383 22.9105 15.2834C25.2332 17.1989 28.5212 18.5865 32.1661 19.1948C35.806 19.7981 39.3655 19.5568 42.1909 18.501C44.9762 17.4553 46.7006 15.7409 47.0525 13.6746C47.4045 11.6133 46.3235 9.43142 44.0159 7.53102C41.6982 5.62058 38.4103 4.23299 34.7653 3.61963C31.1254 3.01131 27.5609 3.25765 24.7355 4.31343ZM36.0473 19.2199C34.8055 19.2199 33.5185 19.1144 32.2214 18.8982C28.7022 18.31 25.5248 16.9877 23.2624 15.1778L23.2574 15.1728C20.9699 13.3328 19.899 11.2111 20.2359 9.19512C20.5727 7.1791 22.277 5.515 25.0371 4.51453C27.762 3.53417 31.2008 3.31296 34.7201 3.90117C38.2393 4.48939 41.4268 5.81162 43.6891 7.62655L43.6942 7.63157C45.9766 9.47164 47.0475 11.5932 46.7107 13.6042C46.3788 15.6203 44.6695 17.2844 41.9094 18.2848C40.185 18.9032 38.179 19.2199 36.0473 19.2199ZM23.3479 15.0471C25.5952 16.847 28.7524 18.1591 32.2466 18.7423C35.7407 19.3255 39.1543 19.1093 41.8541 18.139C44.5589 17.1587 46.228 15.5398 46.5548 13.5791C46.8816 11.6234 45.8308 9.55208 43.5886 7.74721V7.74218C41.3463 5.94736 38.1891 4.63519 34.6949 4.052C31.2008 3.46881 27.7872 3.68499 25.0874 4.6553C22.3826 5.63566 20.7135 7.25451 20.3867 9.21524C20.0549 11.176 21.1107 13.2423 23.3479 15.0471Z" fill="white"/>
<path d="M32.402 9.13996C32.6031 8.52158 33.317 8.04899 34.232 7.82276C35.147 7.59652 36.2481 7.6116 37.2083 7.96353C38.2741 8.33556 39.2646 8.80815 40.1444 9.3662C41.0443 9.91922 41.7632 10.5275 42.3213 11.1761C42.5777 11.4677 42.6883 11.7693 42.6782 12.0609C42.6682 12.3525 42.5375 12.6341 42.3012 12.8804C41.8336 13.3832 40.9588 13.7552 39.8427 13.8155C38.4602 13.8909 37.1128 13.4435 36.4642 12.7145C36.1877 12.4129 35.8358 12.1112 35.4085 11.8397C34.9811 11.5733 34.5035 11.347 34.0008 11.161C33.3924 10.9348 32.9249 10.6281 32.6433 10.2762C32.3668 9.92425 32.2713 9.53211 32.402 9.13996Z" fill="#332B60"/>
<path d="M39.541 13.8508C38.2741 13.8508 37.0624 13.4184 36.4491 12.7296C36.1575 12.4079 35.8056 12.1163 35.3983 11.8599C35.0012 11.6085 34.5286 11.3823 33.9957 11.1812C33.3924 10.96 32.9198 10.6483 32.6282 10.2863C32.3366 9.91927 32.2461 9.51707 32.3768 9.12995C32.5679 8.53671 33.2617 8.03898 34.2269 7.79766C35.2073 7.55132 36.2983 7.60662 37.2183 7.93843C38.2942 8.3155 39.2846 8.78808 40.1594 9.3411C41.0342 9.87905 41.7682 10.4924 42.3413 11.156C42.5927 11.4426 42.7184 11.7493 42.7083 12.056C42.6983 12.3475 42.5676 12.6391 42.3262 12.8955C41.8235 13.4335 40.9185 13.7804 39.8527 13.8407C39.7471 13.8457 39.6415 13.8508 39.541 13.8508ZM35.4888 7.69711C35.0665 7.69711 34.6442 7.74739 34.237 7.84794C33.2918 8.08423 32.6131 8.56687 32.4271 9.14503C32.3064 9.51707 32.3919 9.90418 32.6734 10.2561C32.955 10.6131 33.4225 10.9147 34.0158 11.1359C34.5487 11.337 35.0263 11.5633 35.4285 11.8197C35.8408 12.0761 36.1977 12.3727 36.4893 12.6995C37.1429 13.4285 38.4903 13.8709 39.8477 13.7955C40.8884 13.7351 41.7983 13.3882 42.286 12.8654C42.5173 12.619 42.643 12.3425 42.653 12.061C42.6631 11.7644 42.5424 11.4728 42.3011 11.1962C41.733 10.5376 41.004 9.92932 40.1292 9.39138C39.2544 8.83836 38.269 8.3708 37.1932 7.99374C36.6653 7.79766 36.0771 7.69711 35.4888 7.69711Z" fill="black"/>
<path d="M33.6945 14.6703L34.7 14.1274L35.3486 13.7704L36.4345 13.1772C37.2288 12.7549 37.2439 12.0108 36.4797 11.5281L35.6552 10.9952C34.886 10.4975 33.6241 10.4171 32.7946 10.8142L31.6483 11.3572L30.9646 11.6941L29.9038 12.2018C29.034 12.6241 28.9737 13.3933 29.7731 13.9011L30.7585 14.5446C31.5327 15.0524 32.87 15.1127 33.6945 14.6703ZM35.7658 12.78C35.1877 13.0917 34.2324 13.0565 33.6643 12.6895L33.2823 12.4381C32.7141 12.0711 32.7594 11.5231 33.3727 11.2365C33.8303 11.0153 34.5341 11.0556 34.9514 11.327L35.7759 11.86C36.2183 12.1516 36.2032 12.5487 35.7658 12.78ZM33.0711 13.0867C33.6191 13.4436 33.604 13.9665 33.0359 14.2631L33.0208 14.2681C32.8097 14.3938 32.508 14.4391 32.2013 14.424C31.8997 14.4089 31.6131 14.3285 31.3919 14.1877L30.4065 13.5442C30.1853 13.4034 30.0898 13.2325 30.0999 13.0565C30.1099 12.8805 30.2507 12.7247 30.4769 12.6141L30.492 12.6091C31.0802 12.3275 31.9902 12.3878 32.5332 12.7297L33.0711 13.0867Z" fill="#332B60"/>
<path d="M14.6952 45.8932C15.0018 44.0808 14.8575 42.5451 14.373 42.4631C13.8884 42.3812 13.247 43.7839 12.9404 45.5963C12.6338 47.4087 12.7781 48.9444 13.2627 49.0264C13.7472 49.1083 14.3886 47.7056 14.6952 45.8932Z" fill="#FFC8FA"/>
<path d="M19.8735 40.1696L35.9766 28.0835L29.6973 38.7317L36.8262 41.6175L20.3361 53.8947L26.7361 43.4877L19.8735 40.1696Z" fill="#A512FF"/>
<path d="M39.6619 7.48051C37.5202 8.24469 36.2533 8.33015 36.1125 9.05914C36.0522 9.3809 36.2281 9.76299 36.4745 9.95403C36.7962 10.1954 37.1431 10.0445 38.1637 9.95403C39.0134 9.88365 39.4407 9.84343 39.7675 9.96409C40.5116 10.2305 40.4563 10.7936 41.2204 11.2612C41.9343 11.6986 42.8142 11.7287 43.4024 11.5679C44.5285 11.2662 44.9508 10.2004 45.524 9.44626C47.4998 6.86212 52.0647 7.02803 53.9551 7.09842C58.138 7.24924 60.2596 9.02898 60.9885 8.09889C61.5617 7.37493 60.7925 5.60022 59.7317 4.66511C58.5402 3.61939 56.9816 3.62442 56.0365 3.62442C53.6484 3.62945 52.4418 3.90596 52.4418 3.90596C52.0849 3.9864 51.3307 4.17744 51.1196 3.87579C50.9889 3.68978 51.1146 3.38813 51.1648 3.26244C51.4866 2.48821 52.291 2.4681 52.3513 2.01562C52.3966 1.65867 51.9642 1.19614 51.4966 1.07045C50.838 0.89449 50.1392 1.40729 49.1689 2.1212C48.3494 2.71947 48.1634 3.02615 47.8014 2.96582C47.2132 2.8703 47.2233 1.98043 46.62 1.8296C45.8809 1.64359 45.0061 2.76975 44.7598 3.07642C44.0459 3.99143 44.1666 4.43887 43.7191 5.17289C43.0555 6.27391 41.9243 6.67611 39.6619 7.48051Z" fill="#A512FF"/>
<path d="M42.6933 11.7188C42.2157 11.7188 41.6727 11.6133 41.1901 11.3166C40.8231 11.0904 40.6421 10.8441 40.4762 10.6229C40.2902 10.3715 40.1293 10.1603 39.7472 10.0246C39.4305 9.90895 39.0082 9.94917 38.1686 10.0196C37.887 10.0447 37.6507 10.0749 37.4597 10.1C36.9469 10.1654 36.6905 10.1955 36.4391 10.0095C36.1576 9.79834 35.9866 9.38609 36.052 9.05427C36.1576 8.50628 36.8363 8.30015 37.9675 7.96331C38.4501 7.81751 39.0031 7.6516 39.6366 7.42537C41.8839 6.62599 43.01 6.2238 43.6636 5.14791C43.8446 4.85129 43.9301 4.60494 44.0206 4.34351C44.1513 3.97148 44.282 3.58939 44.7093 3.04139C45.4685 2.07108 46.117 1.64375 46.6298 1.76943C46.9566 1.84987 47.1125 2.12136 47.2633 2.38279C47.4041 2.62914 47.5398 2.8604 47.8063 2.90565C48.0325 2.94084 48.1884 2.81515 48.5353 2.53361C48.6861 2.40793 48.8771 2.2571 49.1235 2.07611C50.1089 1.35215 50.8177 0.834321 51.5065 1.01531C52.0193 1.15105 52.4567 1.64375 52.4064 2.03086C52.3763 2.27218 52.1752 2.39787 51.9389 2.54367C51.6774 2.70958 51.3808 2.89559 51.2149 3.29277C51.1646 3.4084 51.054 3.68491 51.1646 3.84579C51.3456 4.10219 52.0344 3.94131 52.3712 3.8659L52.4215 3.85584C52.4316 3.85082 53.6633 3.57933 56.0313 3.57431C56.9815 3.57431 58.5651 3.56928 59.7717 4.63008C60.8476 5.57525 61.6419 7.38012 61.0386 8.14933C60.6465 8.64705 59.9225 8.43086 58.726 8.06889C57.5848 7.72199 56.0212 7.2494 53.9499 7.17399C52.0294 7.10361 47.5298 6.94273 45.5741 9.49669C45.4434 9.66763 45.3227 9.85365 45.192 10.0497C44.7596 10.7133 44.3071 11.4021 43.4173 11.6384C43.2162 11.6837 42.9648 11.7188 42.6933 11.7188ZM39.2143 9.82348C39.4506 9.82348 39.6265 9.84359 39.7874 9.90392C40.2047 10.0547 40.3807 10.291 40.5717 10.5474C40.7376 10.7686 40.9086 10.9949 41.2504 11.206C41.9744 11.6535 42.8542 11.6485 43.3821 11.5077C44.2267 11.2815 44.6641 10.6178 45.0814 9.96928C45.2121 9.77321 45.3328 9.58216 45.4685 9.4062C47.4644 6.79693 52.0093 6.96284 53.9499 7.03322C56.0363 7.10863 57.6099 7.58625 58.7562 7.93314C59.9024 8.28004 60.5912 8.4912 60.9331 8.05883C61.4861 7.35498 60.6968 5.60039 59.6812 4.71052C58.5098 3.67988 56.9563 3.68491 56.0262 3.68491C53.6734 3.68994 52.4567 3.96142 52.4416 3.96142L52.3914 3.97148C51.9791 4.067 51.2853 4.22788 51.054 3.90109C50.9032 3.68491 51.0339 3.36315 51.0943 3.22741C51.2752 2.79002 51.602 2.58389 51.8685 2.41798C52.0847 2.28224 52.2556 2.17666 52.2757 1.99567C52.3159 1.67894 51.9087 1.23652 51.4713 1.12089C50.8429 0.954981 50.1491 1.46276 49.1939 2.16158C48.9525 2.34257 48.7615 2.49339 48.6107 2.61908C48.2437 2.9157 48.0627 3.06653 47.7811 3.02128C47.4544 2.96598 47.2985 2.69952 47.1477 2.43809C47.0019 2.18672 46.8661 1.95545 46.5947 1.88507C46.1321 1.76943 45.5288 2.18169 44.7998 3.11178C44.3876 3.63966 44.2569 4.01672 44.1312 4.3787C44.0407 4.63511 43.9502 4.89654 43.7642 5.20321C43.0855 6.31429 41.9442 6.72152 39.6718 7.53094C39.0333 7.75718 38.4803 7.92309 37.9926 8.06889C36.9067 8.39065 36.2531 8.58672 36.1626 9.0593C36.1073 9.34084 36.2581 9.70785 36.5045 9.88884C36.7156 10.0497 36.9419 10.0196 37.4346 9.9542C37.6256 9.92906 37.8619 9.89889 38.1485 9.87376C38.616 9.85365 38.9478 9.82348 39.2143 9.82348Z" fill="white"/>
<path d="M53.6534 2.64444C54.1698 2.64444 54.5885 2.2843 54.5885 1.84004C54.5885 1.39579 54.1698 1.03564 53.6534 1.03564C53.1369 1.03564 52.7183 1.39579 52.7183 1.84004C52.7183 2.2843 53.1369 2.64444 53.6534 2.64444Z" fill="#A512FF"/>
<path d="M53.6533 2.70973C53.1003 2.70973 52.6528 2.31758 52.6528 1.83997C52.6528 1.36236 53.1003 0.970215 53.6533 0.970215C54.2063 0.970215 54.6538 1.36236 54.6538 1.83997C54.6538 2.32261 54.2013 2.70973 53.6533 2.70973ZM53.6533 1.0959C53.1707 1.0959 52.7785 1.42772 52.7785 1.83997C52.7785 2.25223 53.1707 2.58404 53.6533 2.58404C54.1359 2.58404 54.5281 2.25223 54.5281 1.83997C54.5281 1.43274 54.1359 1.0959 53.6533 1.0959Z" fill="white"/>
<path d="M59.1081 10.3014C59.0679 10.9751 57.796 11.694 56.9413 11.4074C56.0715 11.1158 56.2626 10.0048 55.0409 9.03949C54.141 8.33061 53.2913 8.34066 53.3165 8.19487C53.3567 7.97366 55.3677 7.89322 57.2681 8.768C57.982 9.09479 59.1534 9.63273 59.1081 10.3014Z" fill="#A512FF"/>
<path d="M57.3739 11.533C57.213 11.533 57.0622 11.5129 56.9264 11.4626C56.4689 11.3067 56.2879 10.9397 56.0768 10.5074C55.8606 10.0649 55.6092 9.56219 55.0109 9.08458C54.4529 8.64216 53.9149 8.48631 53.5932 8.39078C53.3669 8.32543 53.2413 8.29023 53.2614 8.17963C53.2664 8.13941 53.2966 8.10924 53.3468 8.07908C53.7189 7.88301 55.5941 7.92323 57.3035 8.70752C58.0224 9.03933 59.224 9.58733 59.1787 10.3012C59.1586 10.5878 58.9374 10.8995 58.5704 11.1459C58.1933 11.4023 57.761 11.533 57.3739 11.533ZM53.3971 8.19974C53.4373 8.21985 53.5379 8.25001 53.6284 8.27515C53.9602 8.37067 54.5082 8.53155 55.0863 8.98906C55.7098 9.48175 55.9762 10.0247 56.1874 10.4571C56.3935 10.8794 56.5594 11.2112 56.9616 11.3469C57.399 11.4927 58.0023 11.3771 58.49 11.0453C58.8218 10.8241 59.0279 10.5426 59.043 10.2962C59.0832 9.66777 57.9319 9.13988 57.2431 8.82315C55.4131 7.98356 53.6083 8.05897 53.3971 8.19974Z" fill="white"/>
<path d="M60.1186 5.74134C60.1538 5.97764 60.1236 6.36475 59.9074 6.48039C59.46 6.72673 58.7712 5.52013 57.1524 4.70568C55.8301 4.04205 54.7492 4.06719 54.7643 3.91636C54.7794 3.76554 55.9106 3.67002 57.0669 3.89123C57.4942 3.97669 59.9426 4.4895 60.1186 5.74134Z" fill="#C169FF"/>
<path d="M54.5129 1.67911C54.5581 1.9154 54.4425 2.19694 54.3218 2.20699C54.1609 2.21705 54.1609 1.72938 53.7939 1.52325C53.432 1.32215 53.0097 1.55342 52.9845 1.47801C52.9594 1.39757 53.3616 1.0557 53.8141 1.111C54.0956 1.15122 54.4525 1.34729 54.5129 1.67911Z" fill="#C169FF"/>
<path d="M58.9425 10.3113C58.9223 10.5878 58.671 10.8794 58.495 10.8542C58.2336 10.814 58.3643 10.1202 57.8314 9.49177C57.5498 9.15996 57.2331 9.02422 57.2582 8.984C57.2834 8.93875 57.7057 9.10466 58.0928 9.35603C58.5151 9.62752 58.9676 9.91911 58.9425 10.3113Z" fill="#C169FF"/>
</svg>
