<svg width="31" height="30" viewBox="0 0 31 30" fill="none" xmlns="http://www.w3.org/2000/svg">
<g clip-path="url(#clip0_139_4885)">
<path d="M29.0062 25.909H9.92141C9.17005 25.909 8.55778 25.2981 8.55778 24.546V23.1831C8.55778 22.9335 8.69482 22.7045 8.91369 22.5845L15.586 18.9456C13.351 16.5285 13.3264 13.1092 13.3264 12.951L13.3305 8.86491C13.3305 8.82673 13.3339 8.78923 13.34 8.75241C13.8098 5.9665 16.8855 4.09559 19.4635 4.09559H19.4662C22.0428 4.09559 25.1178 5.96514 25.5889 8.75037C25.595 8.78787 25.5985 8.82605 25.5985 8.86355L25.6005 12.9504C25.6005 13.1079 25.576 16.5272 23.3416 18.9442L30.0139 22.5831C30.2328 22.7031 30.3691 22.9322 30.3691 23.1817V24.546C30.3691 25.2981 29.7575 25.909 29.0062 25.909ZM21.8641 19.6908C21.6644 19.5817 21.5321 19.3806 21.511 19.1542C21.4905 18.9279 21.5846 18.7063 21.7605 18.5631C24.213 16.5749 24.2375 12.9872 24.2375 12.951L24.2348 8.92423C23.8516 6.87878 21.4257 5.45787 19.4635 5.45787C17.5005 5.45855 15.076 6.88014 14.6941 8.92559L14.69 12.9524C14.69 12.9872 14.7275 16.5865 17.1664 18.5645C17.343 18.7076 17.4371 18.9292 17.416 19.1556C17.3955 19.382 17.2632 19.5831 17.0635 19.6922L9.92141 23.5881V24.546H29.0048L29.0055 23.5874L21.8641 19.6908ZM13.083 5.809C12.481 5.57514 11.8564 5.45241 11.2748 5.45241C9.31187 5.45309 6.88664 6.87468 6.50482 8.92014L6.50073 12.947C6.50073 12.9824 6.53755 16.581 8.9771 18.559C9.15369 18.7022 9.24778 18.9238 9.22732 19.1501C9.20619 19.3765 9.07391 19.5776 8.87414 19.6867L1.7321 23.5826V24.5406H6.50414C6.8805 24.5406 7.18528 24.846 7.18528 25.2224C7.18528 25.5988 6.8805 25.9042 6.50414 25.9042H1.7321C0.980732 25.9042 0.369141 25.2926 0.369141 24.5406V23.1776C0.369141 22.9288 0.505504 22.699 0.724368 22.5797L7.39664 18.9401C5.16232 16.5231 5.1371 13.1038 5.1371 12.9463L5.14119 8.85946C5.14119 8.82196 5.1446 8.78377 5.15073 8.74696C5.6205 5.96173 8.69619 4.09082 11.2748 4.09082C11.2775 4.09082 11.2816 4.09082 11.285 4.09082C12.0289 4.09082 12.8205 4.24559 13.5753 4.53809C13.9271 4.67446 14.101 5.06923 13.9653 5.41968C13.8282 5.77082 13.4314 5.94537 13.083 5.809Z" fill="white"/>
</g>
<defs>
<clipPath id="clip0_139_4885">
<rect width="30" height="30" fill="white" transform="translate(0.369141)"/>
</clipPath>
</defs>
</svg>
