<svg width="242" height="239" viewBox="0 0 242 239" fill="none" xmlns="http://www.w3.org/2000/svg">
<path d="M235.804 97.949C237.34 100.378 236.799 103.585 234.84 105.595C233.323 107.155 231.229 107.987 229.116 108.308C227.396 108.573 225.615 108.567 223.901 108.258C222.587 108.018 221.266 107.58 220.345 106.563C219.325 105.434 218.95 103.813 219.129 102.327C219.442 99.7556 221.487 97.9244 223.563 96.6172C225.51 95.3964 227.777 94.6071 230.098 94.7119C232.432 94.8229 234.619 96.0623 235.811 97.9429L235.804 97.949Z" fill="#FF77F1" stroke="black" stroke-width="2" stroke-miterlimit="10" stroke-linecap="round"/>
<path d="M239.004 120.776C239.6 122.644 239.201 124.74 238.083 126.331C235.767 129.617 231.222 129.815 227.666 128.964C225.633 128.477 223.557 127.601 222.341 125.801C220.418 122.958 221.837 119.764 224.478 118.056C226.063 117.033 227.924 116.41 229.779 116.12C233.298 115.572 237.825 117.051 239.01 120.782L239.004 120.776Z" fill="#FF77F1" stroke="black" stroke-width="2" stroke-miterlimit="10" stroke-linecap="round"/>
<path d="M239.09 107.635C240.196 109.479 240.355 111.884 239.225 113.74C238.027 115.713 236.191 116.977 234.011 117.612C231.763 118.271 229.318 118.395 227.009 117.883C225.627 117.575 224.226 117.032 223.348 115.861C222.205 114.338 222.187 112.358 222.826 110.626C223.563 108.628 225.387 107.117 227.181 106.081C230.958 103.886 236.523 103.35 239.09 107.635Z" fill="#FF77F1" stroke="black" stroke-width="2" stroke-miterlimit="10" stroke-linecap="round"/>
<path d="M159.919 126.793C165.57 129.118 178.278 134.223 186.201 136.677C187.497 137.078 188.91 137.103 190.193 136.653C197.435 134.137 207.68 129.63 210.481 129.673C213.705 129.722 215.271 132.096 222.691 130.931C230.897 129.636 236.468 123.538 235.546 116.564C232.961 89.8782 220.081 100.046 220.081 100.046C220.081 100.046 216.494 94.6506 208.558 97.0738C201.292 99.2935 202.293 105.977 204.584 110.929L189.051 116.219C187.736 116.663 186.318 116.657 185.003 116.207L163.076 108.431" fill="#FF77F1"/>
<path d="M159.919 126.793C165.57 129.118 178.278 134.223 186.201 136.677C187.497 137.078 188.91 137.103 190.193 136.653C197.435 134.137 207.68 129.63 210.481 129.673C213.705 129.722 215.271 132.096 222.691 130.931C230.897 129.636 236.468 123.538 235.546 116.564C232.961 89.8782 220.081 100.046 220.081 100.046C220.081 100.046 216.494 94.6506 208.558 97.0738C201.292 99.2935 202.293 105.977 204.584 110.929L189.051 116.219C187.736 116.663 186.318 116.657 185.003 116.207L163.076 108.431" stroke="black" stroke-width="2" stroke-linecap="round" stroke-linejoin="round"/>
<path d="M216.451 97.2458C216.451 97.2458 222.144 99.6136 221.223 104.657C220.584 108.159 216.205 110.546 212.047 108.437" fill="#FF77F1"/>
<path d="M216.451 97.2458C216.451 97.2458 222.144 99.6136 221.223 104.657C220.584 108.159 216.205 110.546 212.047 108.437" stroke="black" stroke-width="2" stroke-miterlimit="10" stroke-linecap="round"/>
<path d="M215.726 109.208C217.206 110.213 218.864 114.165 217.814 118.099" stroke="black" stroke-width="2" stroke-linecap="round" stroke-linejoin="round"/>
<path d="M180.575 114.633C178.806 121.157 176.313 127.107 173.714 132.262C167.468 129.931 160.718 126.386 157.131 124.906L164.397 108.862L180.581 114.633H180.575Z" fill="black"/>
<path d="M92.4731 239C139.489 239 177.602 232.67 177.602 224.862C177.602 217.053 139.489 210.723 92.4731 210.723C45.4575 210.723 7.34375 217.053 7.34375 224.862C7.34375 232.67 45.4575 239 92.4731 239Z" fill="black"/>
<path d="M104.364 168.437C103.652 169.084 70.6135 203.582 70.6135 203.582C70.6135 203.582 83.8252 202.38 90.1085 210.131C96.3919 217.881 94.5677 224.861 94.5677 224.861H53.4771L35.8555 202.559C35.8555 202.559 38.1526 194.297 48.4099 196.029C61.2468 184.08 82.5108 159.57 82.5108 159.57L104.37 168.437H104.364Z" fill="#FF77F1" stroke="black" stroke-width="2" stroke-miterlimit="10"/>
<path d="M82.5104 159.571L101.723 167.365L99.7328 173.223C97.9331 175.091 93.7381 179.463 91.355 181.941C84.0336 181.941 74.1694 180.628 65.9697 178.014C74.5379 168.703 82.5104 159.565 82.5104 159.565V159.571Z" fill="black"/>
<path d="M125.917 12.0701L125.849 12.2365L18.854 48.1775C11.7968 60.5894 7.76758 74.9559 7.76758 90.272C7.76758 137.256 45.7073 175.349 92.51 175.349C139.313 175.349 177.258 137.262 177.258 90.272C177.258 55.1943 156.111 25.0863 125.923 12.0701H125.917Z" fill="#FF77F1" stroke="black" stroke-width="2" stroke-miterlimit="10"/>
<path d="M70.613 203.583C68.1194 203.885 63.5558 204.421 59.6494 208.041" stroke="black" stroke-width="2" stroke-linecap="round" stroke-linejoin="round"/>
<path d="M21.9434 95.0631C19.2347 95.0631 17.042 92.8619 17.042 90.1427C17.042 48.375 50.891 14.3887 92.5037 14.3887C95.2123 14.3887 97.4051 16.5899 97.4051 19.309C97.4051 22.0282 95.2123 24.2294 92.5037 24.2294C56.3022 24.2294 26.8448 53.7948 26.8448 90.1427C26.8448 92.8619 24.652 95.0631 21.9434 95.0631Z" fill="white"/>
<path d="M33.3555 150.137L54.3614 133.205L39.0922 155.587C34.9586 152.443 36.8442 153.978 33.3555 150.143V150.137Z" fill="black"/>
<path d="M107.041 143.879C118.797 135.616 131.087 136.911 141.142 148.417C153.18 162.198 159.918 168.801 159.918 168.801C159.918 168.801 166.515 156.876 181.274 158.011C192.49 158.874 196.531 166.908 196.531 166.908C196.531 166.908 200.345 172.347 182.742 187.564C165.139 202.781 149.004 212.795 145.19 205.729C141.375 198.663 143.457 185.936 143.457 185.936C143.457 185.936 129.933 169.849 126.296 166.199C122.126 162.013 116.647 165.361 116.647 165.361" fill="#FF77F1"/>
<path d="M107.041 143.879C118.797 135.616 131.087 136.911 141.142 148.417C153.18 162.198 159.918 168.801 159.918 168.801C159.918 168.801 166.515 156.876 181.274 158.011C192.49 158.874 196.531 166.908 196.531 166.908C196.531 166.908 200.345 172.347 182.742 187.564C165.139 202.781 149.004 212.795 145.19 205.729C141.375 198.663 143.457 185.936 143.457 185.936C143.457 185.936 129.933 169.849 126.296 166.199C122.126 162.013 116.647 165.361 116.647 165.361" stroke="black" stroke-width="2" stroke-linejoin="round"/>
<path d="M182.743 187.57C166.841 201.314 152.143 210.809 146.634 207.313C140.633 202.726 163.119 183.55 174.199 174.819C185.28 166.088 193.958 163.831 196.532 166.92C196.532 166.92 200.346 172.359 182.743 187.576V187.57Z" fill="#FF77F1" stroke="black" stroke-width="2" stroke-miterlimit="10"/>
<path d="M159.919 168.808C158.758 170.571 157.124 175.208 157.124 175.208" stroke="black" stroke-width="2" stroke-linecap="round" stroke-linejoin="round"/>
<path d="M78.8233 49.3043C109.343 39.0234 131.787 23.8191 128.954 15.3445C126.121 6.86993 99.0841 8.33427 68.5648 18.6152C38.0455 28.8961 15.6011 44.1005 18.4339 52.575C21.2667 61.0496 48.304 59.5852 78.8233 49.3043Z" fill="white" stroke="black" stroke-width="2" stroke-miterlimit="10" stroke-linecap="round"/>
<path d="M76.296 41.7451C99.1903 34.0328 116.585 24.2947 115.147 19.9944C113.71 15.6942 93.9849 18.4602 71.0905 26.1726C48.1962 33.8849 30.802 43.623 32.2394 47.9232C33.6769 52.2235 53.4017 49.4574 76.296 41.7451Z" fill="#DB03C6" stroke="black" stroke-width="2" stroke-miterlimit="10" stroke-linecap="round"/>
<path d="M39.7183 118.223C34.7739 121.818 24.1543 131.042 17.9016 136.518C16.8759 137.412 16.1696 138.62 15.8195 139.94C13.8908 147.135 10.568 160.558 10.568 160.558C10.568 160.558 5.39635 160.916 3.08078 169.406C0.845063 177.607 -0.99757 184.858 5.39634 187.75C5.61132 192.356 10.009 197.276 17.1891 193.552C17.2751 193.515 17.9999 194.366 18.0736 194.446C19.6951 196.111 21.98 197.19 24.2955 197.412C26.5374 197.634 28.9697 196.999 30.7017 195.513C32.7225 193.78 34.0185 191.234 34.4177 188.607C34.6634 186.998 34.5774 185.333 33.957 183.81C33.957 183.81 37.7651 182.262 38.9014 176.818C40.1237 170.966 36.3095 164.844 29.9217 165.608L33.7114 151.359C34.0246 150.002 34.7801 148.794 35.855 147.912L53.9004 132.929" fill="#FF77F1"/>
<path d="M39.7183 118.223C34.7739 121.818 24.1543 131.042 17.9016 136.518C16.8759 137.412 16.1696 138.62 15.8195 139.94C13.8908 147.135 10.568 160.558 10.568 160.558C10.568 160.558 5.39635 160.916 3.08078 169.406C0.845063 177.607 -0.99757 184.858 5.39634 187.75C5.61132 192.356 10.009 197.276 17.1891 193.552C17.2751 193.515 17.9999 194.366 18.0736 194.446C19.6951 196.111 21.98 197.19 24.2955 197.412C26.5374 197.634 28.9697 196.999 30.7017 195.513C32.7225 193.78 34.0185 191.234 34.4177 188.607C34.6634 186.998 34.5774 185.333 33.957 183.81C33.957 183.81 37.7651 182.262 38.9014 176.818C40.1237 170.966 36.3095 164.844 29.9217 165.608L33.7114 151.359C34.0246 150.002 34.7801 148.794 35.855 147.912L53.9004 132.929" stroke="black" stroke-width="2" stroke-linecap="round" stroke-linejoin="round"/>
<path d="M33.9576 183.803C33.1161 181.664 30.647 179.438 28.4297 179.561" stroke="black" stroke-width="2" stroke-linecap="round" stroke-linejoin="round"/>
<path d="M18.0673 194.434C14.8979 191.184 15.721 187.053 16.2861 186.085" stroke="black" stroke-width="2" stroke-linecap="round" stroke-linejoin="round"/>
<path d="M5.38968 187.744C5.22384 184.525 5.83805 183.23 7.26916 181.683" stroke="black" stroke-width="2" stroke-linecap="round" stroke-linejoin="round"/>
<path d="M27.3232 182.922C27.4092 181.645 27.6181 180.357 28.134 179.185C28.6561 177.983 29.5835 176.793 30.7812 176.195" stroke="black" stroke-width="2" stroke-linecap="round" stroke-linejoin="round"/>
<path d="M140.048 102.205C131.289 107.113 128.157 118.223 133.046 127.016C137.935 135.808 149.003 138.953 157.761 134.045C166.519 129.137 169.652 118.026 164.763 109.234C159.874 100.441 148.806 97.297 140.048 102.205ZM140.029 106.102L146.491 117.718L142.554 131.658C139.827 130.376 137.462 128.255 135.884 125.419C132.186 118.772 134.084 110.51 140.029 106.102ZM146.165 132.83L149.107 122.416L154.444 132.016C151.748 133.101 148.88 133.342 146.165 132.83ZM157.755 130.166L152.289 120.338L163.043 122.866C162.091 125.715 160.298 128.292 157.761 130.166H157.755ZM163.774 119.136L149.789 115.843L143.34 104.246C150.207 101.459 158.222 104.172 161.925 110.831C163.387 113.457 163.971 116.343 163.78 119.136H163.774Z" fill="#FFFF0D" stroke="black" stroke-width="2" stroke-linecap="round" stroke-linejoin="round"/>
<path d="M167.269 106.928C170.088 106.928 172.373 104.634 172.373 101.804C172.373 98.9746 170.088 96.6807 167.269 96.6807C164.45 96.6807 162.165 98.9746 162.165 101.804C162.165 104.634 164.45 106.928 167.269 106.928Z" fill="#FFFF0D" stroke="black" stroke-width="2" stroke-linecap="round" stroke-linejoin="round"/>
<path d="M177.532 101.786C180.351 101.786 182.636 99.492 182.636 96.6623C182.636 93.8325 180.351 91.5386 177.532 91.5386C174.713 91.5386 172.428 93.8325 172.428 96.6623C172.428 99.492 174.713 101.786 177.532 101.786Z" fill="#FFFF0D" stroke="black" stroke-width="2" stroke-linecap="round" stroke-linejoin="round"/>
<path d="M124.405 121.924C127.224 121.924 129.509 119.63 129.509 116.8C129.509 113.971 127.224 111.677 124.405 111.677C121.586 111.677 119.301 113.971 119.301 116.8C119.301 119.63 121.586 121.924 124.405 121.924Z" fill="#FFFF0D" stroke="black" stroke-width="2" stroke-linecap="round" stroke-linejoin="round"/>
<path d="M113.11 123.964C115.929 123.964 118.214 121.67 118.214 118.84C118.214 116.011 115.929 113.717 113.11 113.717C110.291 113.717 108.006 116.011 108.006 118.84C108.006 121.67 110.291 123.964 113.11 123.964Z" fill="#FFFF0D" stroke="black" stroke-width="2" stroke-linecap="round" stroke-linejoin="round"/>
<path d="M101.784 125.702C104.602 125.702 106.888 123.408 106.888 120.579C106.888 117.749 104.602 115.455 101.784 115.455C98.9648 115.455 96.6797 117.749 96.6797 120.579C96.6797 123.408 98.9648 125.702 101.784 125.702Z" fill="#FFFF0D" stroke="black" stroke-width="2" stroke-linecap="round" stroke-linejoin="round"/>
<path d="M90.4457 127.041C93.2645 127.041 95.5497 124.747 95.5497 121.917C95.5497 119.088 93.2645 116.794 90.4457 116.794C87.6269 116.794 85.3418 119.088 85.3418 121.917C85.3418 124.747 87.6269 127.041 90.4457 127.041Z" fill="#FFFF0D" stroke="black" stroke-width="2" stroke-linecap="round" stroke-linejoin="round"/>
<path d="M79.016 127.713C81.8349 127.713 84.12 125.419 84.12 122.589C84.12 119.759 81.8349 117.465 79.016 117.465C76.1972 117.465 73.9121 119.759 73.9121 122.589C73.9121 125.419 76.1972 127.713 79.016 127.713Z" fill="#FFFF0D" stroke="black" stroke-width="2" stroke-linecap="round" stroke-linejoin="round"/>
<path d="M67.5668 127.534C70.3856 127.534 72.6708 125.24 72.6708 122.41C72.6708 119.58 70.3856 117.286 67.5668 117.286C64.748 117.286 62.4629 119.58 62.4629 122.41C62.4629 125.24 64.748 127.534 67.5668 127.534Z" fill="#FFFF0D" stroke="black" stroke-width="2" stroke-linecap="round" stroke-linejoin="round"/>
<path d="M56.1498 127.534C58.9686 127.534 61.2538 125.24 61.2538 122.41C61.2538 119.58 58.9686 117.286 56.1498 117.286C53.331 117.286 51.0459 119.58 51.0459 122.41C51.0459 125.24 53.331 127.534 56.1498 127.534Z" fill="#FFFF0D" stroke="black" stroke-width="2" stroke-linecap="round" stroke-linejoin="round"/>
<path d="M44.8305 126.042C47.6493 126.042 49.9344 123.748 49.9344 120.918C49.9344 118.088 47.6493 115.794 44.8305 115.794C42.0117 115.794 39.7266 118.088 39.7266 120.918C39.7266 123.748 42.0117 126.042 44.8305 126.042Z" fill="#FFFF0D" stroke="black" stroke-width="2" stroke-linecap="round" stroke-linejoin="round"/>
<path d="M33.4789 124.926C36.2978 124.926 38.5829 122.632 38.5829 119.802C38.5829 116.972 36.2978 114.678 33.4789 114.678C30.6601 114.678 28.375 116.972 28.375 119.802C28.375 122.632 30.6601 124.926 33.4789 124.926Z" fill="#FFFF0D" stroke="black" stroke-width="2" stroke-linecap="round" stroke-linejoin="round"/>
<path d="M22.27 122.694C25.0888 122.694 27.3739 120.4 27.3739 117.571C27.3739 114.741 25.0888 112.447 22.27 112.447C19.4511 112.447 17.166 114.741 17.166 117.571C17.166 120.4 19.4511 122.694 22.27 122.694Z" fill="#FFFF0D" stroke="black" stroke-width="2" stroke-linecap="round" stroke-linejoin="round"/>
<path d="M11.1293 120.215C13.9481 120.215 16.2333 117.921 16.2333 115.091C16.2333 112.261 13.9481 109.968 11.1293 109.968C8.31051 109.968 6.02539 112.261 6.02539 115.091C6.02539 117.921 8.31051 120.215 11.1293 120.215Z" fill="#FFFF0D" stroke="black" stroke-width="2" stroke-linecap="round" stroke-linejoin="round"/>
<path d="M148.175 62.5764C147.034 59.2511 143.423 57.4877 140.111 58.6329C136.799 59.7782 135.042 63.4028 136.183 66.7281" fill="black"/>
<path d="M137.567 90.7083C141.067 90.5912 143.809 87.6485 143.692 84.1356C143.575 80.6227 140.644 77.87 137.145 77.9871C133.645 78.1043 130.903 81.047 131.02 84.5598C131.137 88.0727 134.068 90.8255 137.567 90.7083Z" fill="black"/>
<path d="M127.49 69.7402C126.35 66.415 122.739 64.6515 119.427 65.7968C116.114 66.9421 114.357 70.5666 115.498 73.8919" fill="black"/>
<path d="M51.1818 107L69.4545 70.8182V70.5455H48V60.4545H82.5455V70.5455L64.1818 107H51.1818Z" fill="white"/>
</svg>
