<svg width="142" height="80" viewBox="0 0 142 80" fill="none" xmlns="http://www.w3.org/2000/svg">
<g clip-path="url(#clip0_120_6342)">
<path d="M17.2488 71.209H117.39C134.547 71.209 150.497 48.9619 134.547 31.9149C118.056 14.2903 95.5189 34.1892 95.5189 34.1892C95.5189 34.1892 88.2427 -3.01519 53.1932 1.21338C20.2124 5.19316 18.5628 39.8736 20.7611 46.6956C2.07323 38.169 -10.9987 71.209 17.2497 71.209H17.2488Z" fill="white" stroke="black" stroke-width="2" stroke-miterlimit="10"/>
<path d="M42.9505 69.4506C42.9505 64.1098 38.6336 59.7803 33.3085 59.7803C27.9834 59.7803 23.6665 64.1098 23.6665 69.4506C23.6665 74.7914 27.9834 79.1209 33.3085 79.1209C38.6336 79.1209 42.9505 74.7914 42.9505 69.4506Z" fill="white" stroke="black" stroke-width="2"/>
<path d="M97.4565 60H63.5435C54.9591 60 48 64.2533 48 69.5C48 74.7467 54.9591 79 63.5435 79H97.4565C106.041 79 113 74.7467 113 69.5C113 64.2533 106.041 60 97.4565 60Z" fill="white" stroke="black" stroke-width="2"/>
</g>
<defs>
<clipPath id="clip0_120_6342">
<rect width="142" height="80" fill="white"/>
</clipPath>
</defs>
</svg>
