<svg width="805" height="805" viewBox="0 0 805 805" fill="none" xmlns="http://www.w3.org/2000/svg">
<path d="M344.97 780.342H148.648L107.947 486.986H344.829V780.342H344.97Z" fill="#FFB802"/>
<path d="M346.379 781.75H147.381L106.398 485.577H346.379V781.75ZM149.916 778.933H343.562V488.394H109.638L149.916 778.933Z" fill="white"/>
<path d="M694.659 486.986L653.958 780.342H347.786V486.986H694.659Z" fill="#FFE81E"/>
<path d="M655.226 781.75H346.378V485.577H696.208L695.926 487.126L655.226 781.75ZM349.195 778.933H652.691L692.969 488.394H349.195V778.933Z" fill="white"/>
<path d="M673.534 279.96C672.689 280.101 671.421 280.242 669.872 280.524C666.492 280.946 661.563 281.65 655.225 282.495C642.55 284.185 624.383 286.439 602.272 288.974C558.05 293.903 498.196 299.536 435.666 302.353H379.614C379.896 301.226 380.459 299.536 381.023 297.424C382.29 293.058 384.403 286.861 387.36 279.256C393.275 264.046 402.852 243.203 417.498 220.669C446.51 175.884 495.239 124.903 574.387 99.271C574.528 99.4118 574.528 99.4118 574.669 99.5527C575.232 100.257 576.077 101.102 577.204 102.369C579.316 104.904 582.555 108.566 586.358 113.214C594.104 122.649 604.525 136.169 615.651 152.929C637.762 186.165 662.408 231.232 673.534 279.96Z" fill="#FF0E0E"/>
<path d="M379.615 303.761H377.784L378.207 301.93C378.488 300.804 379.052 299.114 379.615 297.001C381.446 291.227 383.558 285.171 385.953 278.834C391.445 264.891 401.163 243.344 416.232 220.106C442.849 179.124 491.718 124.762 573.824 98.1445L574.669 97.8628L575.514 98.8486C576.078 99.5528 576.923 100.398 578.049 101.665C581.007 105.045 584.105 108.707 587.204 112.509C594.245 121.1 605.089 135.043 616.638 152.365C636.777 182.504 663.254 229.12 674.802 279.679L675.084 281.228L673.534 281.51C672.689 281.65 671.422 281.791 669.873 282.073C666.493 282.495 661.564 283.2 655.226 284.045C643.678 285.594 625.088 287.988 602.273 290.523C561.853 295.03 500.168 301.085 435.526 303.902L379.615 303.761ZM381.446 300.945H435.667C500.168 297.987 561.853 292.072 602.132 287.565C624.947 285.03 643.537 282.636 655.085 281.087C661.423 280.242 666.352 279.538 669.732 279.115C670.577 278.975 671.281 278.834 671.844 278.834C660.155 229.12 634.242 183.49 614.384 153.914C602.836 136.733 592.133 122.931 585.091 114.34C581.993 110.538 578.894 106.876 575.937 103.496C575.092 102.51 574.388 101.665 573.824 101.102C493.127 127.579 444.821 181.236 418.626 221.655C403.698 244.752 393.98 266.018 388.628 279.96C386.234 286.157 384.122 292.213 382.291 297.987C382.009 298.973 381.728 300.1 381.446 300.945Z" fill="white"/>
<path d="M402.994 296.297C402.149 295.593 400.881 294.607 399.332 293.199C396.093 290.382 391.446 286.298 385.953 280.805C374.968 269.961 360.603 253.765 346.801 232.5C319.339 190.25 294.13 128.283 303.706 49.1345C303.706 49.1345 303.706 49.1345 303.847 49.1345C304.27 48.8529 304.833 48.4304 305.537 48.0079C307.086 47.022 309.481 45.6137 312.579 43.9237C318.776 40.5437 328.071 36.3187 340.323 32.5162C364.687 25.052 400.881 19.8412 448.061 28.2912C448.061 28.432 448.061 28.432 448.061 28.5728C448.202 29.4178 448.483 30.5445 448.765 32.2345C449.328 35.3329 450.032 39.9804 450.737 45.8954C452.145 57.7254 453.694 74.7662 453.694 95.187C453.835 136.17 448.202 191.095 425.527 247.005L402.994 296.297Z" fill="#AB0000"/>
<path d="M403.557 298.55L402.149 297.424C401.304 296.72 400.036 295.734 398.487 294.325C395.53 291.79 390.741 287.565 385.108 281.932C375.109 271.933 360.04 255.455 345.815 233.485C320.606 194.756 292.58 131.381 302.439 49.2752L302.58 48.7118L303.143 48.2893C303.565 48.0077 304.27 47.5852 304.974 47.0218C307.086 45.6135 309.48 44.2052 312.015 42.7968C317.79 39.6985 327.225 35.1918 340.041 31.3893C362.434 24.6293 399.473 18.2918 448.483 27.0235L449.469 27.1643L449.75 28.4318C449.891 29.2768 450.173 30.4035 450.455 32.0935C451.018 34.9102 451.722 39.6985 452.426 45.8952C453.694 56.7393 455.384 74.2027 455.384 95.3277C455.525 132.789 450.595 189.686 427.076 247.569L403.557 298.55ZM305.115 50.1202C295.538 131.24 323.282 193.629 348.069 231.936C362.293 253.765 377.08 270.102 387.08 279.96C392.713 285.594 397.36 289.678 400.318 292.213C401.163 292.917 401.867 293.621 402.571 294.044L424.4 246.442C447.779 188.982 452.567 132.508 452.426 95.3277C452.426 74.2027 450.736 57.021 449.469 46.1768C448.765 40.121 447.92 35.3327 447.497 32.516C447.356 31.3893 447.075 30.4035 446.934 29.5585C398.91 21.1085 362.715 27.3052 340.745 33.9243C328.211 37.7268 318.775 42.0927 313.142 45.191C310.044 46.881 307.65 48.2893 306.241 49.2752C305.819 49.6977 305.396 49.9793 305.115 50.1202Z" fill="white"/>
<path d="M392.149 297.424C392.853 299.536 393.275 301.226 393.557 302.353H337.505C274.834 299.536 216.952 297.001 174.561 295.17C153.436 294.185 136.114 293.48 124.143 292.917L110.341 292.354L107.243 292.213C118.369 243.484 141.184 195.319 161.464 159.266C171.744 141.099 181.18 125.889 188.222 115.326C191.743 109.974 194.559 105.89 196.531 103.074C197.517 101.665 198.221 100.539 198.784 99.8344C198.925 99.6936 198.925 99.6936 198.925 99.5527C277.933 125.184 326.661 176.166 355.673 220.951C370.319 243.344 379.896 264.187 385.811 279.538C388.769 286.861 390.881 293.058 392.149 297.424Z" fill="#FF0E0E"/>
<path d="M395.529 303.761H337.646C274.976 300.945 216.952 298.41 174.702 296.579L105.694 293.48L106.116 291.79C117.665 241.09 142.029 191.376 160.478 158.421C171.041 139.549 180.899 124.058 187.236 114.34C190.053 109.974 192.87 105.749 195.546 102.088C196.531 100.679 197.376 99.5528 197.799 98.8486L198.644 97.7219L199.63 98.0036C281.595 124.621 330.464 178.983 357.081 219.965C372.151 243.203 381.868 264.75 387.361 278.693C390.459 286.579 392.571 292.917 393.698 296.86C394.402 298.973 394.825 300.663 395.106 301.79L395.529 303.761ZM109.074 290.805L174.702 293.762C217.093 295.593 274.976 298.269 337.646 300.945H391.726C391.445 300.1 391.163 298.973 390.741 297.846C389.614 293.903 387.502 287.706 384.403 279.82C379.052 266.018 369.334 244.611 354.406 221.514C328.211 181.095 280.046 127.579 199.489 100.961C199.066 101.665 198.362 102.51 197.658 103.637C194.982 107.439 192.306 111.524 189.349 115.889C183.011 125.466 173.153 140.958 162.731 159.829C144.564 192.221 120.622 240.949 109.074 290.805Z" fill="white"/>
<path d="M738.318 285.171L728.178 484.31H316.944V285.171H738.318Z" fill="#FFF384"/>
<path d="M729.586 485.577H315.536V283.763H739.867L739.726 285.312L729.586 485.577ZM318.353 482.761H726.911L736.91 286.439H318.353V482.761Z" fill="white"/>
<path d="M345.11 285.171V484.31H77.2451L66.6826 284.889L345.11 285.171Z" fill="#FFCA41"/>
<path d="M346.519 485.718H75.8371L65.1338 283.481L346.519 283.763V485.718ZM78.513 482.901H343.561V286.58L68.0913 286.298L78.513 482.901Z" fill="white"/>
<g opacity="0.5">
<path d="M578.049 283.763H521.575L493.268 779.919H549.742L578.049 283.763Z" fill="#F4A201"/>
</g>
<g opacity="0.5">
<path d="M199.348 283.763H255.822L284.13 779.919H227.656L199.348 283.763Z" fill="#E98C00"/>
</g>
<path d="M480.452 778.511L508.619 285.171H562.276L534.11 778.511H480.452Z" fill="#FF0E0E"/>
<path d="M535.377 779.919H478.903L479.044 778.37L507.21 283.622H563.685L563.544 285.171L535.377 779.919ZM481.86 777.102H532.701L560.586 286.58H509.745L481.86 777.102Z" fill="white"/>
<path d="M214.558 778.511L186.392 285.171H240.049L268.216 778.511H214.558Z" fill="#AB0000"/>
<path d="M269.765 779.919H213.291L184.983 283.763H241.458L269.765 779.919ZM215.967 777.102H266.808L238.923 286.58H188.082L215.967 777.102Z" fill="white"/>
</svg>
